<?xml version="1.0" encoding="UTF-8" standalone="no"?>
<!DOCTYPE svg PUBLIC "-//W3C//DTD SVG 1.1//EN" "http://www.w3.org/Graphics/SVG/1.1/DTD/svg11.dtd">
<svg width="100%" height="100%" viewBox="0 0 1280 618" version="1.1" xmlns="http://www.w3.org/2000/svg" xmlns:xlink="http://www.w3.org/1999/xlink" xml:space="preserve" xmlns:serif="http://www.serif.com/" style="fill-rule:evenodd;clip-rule:evenodd;stroke-linecap:round;stroke-linejoin:round;stroke-miterlimit:1.5;">
    <g id="Artboard1" transform="matrix(1,0,0,0.856988,0,0)">
        <rect x="0" y="0" width="1280" height="720.219" style="fill:none;"/>
        <clipPath id="_clip1">
            <rect x="0" y="0" width="1280" height="720.219"/>
        </clipPath>
        <g clip-path="url(#_clip1)">
            <g id="Design" transform="matrix(1,0,0,0.856988,0,0)">
                <g transform="matrix(1,0,0,1.16688,0,0)">
                    <path d="M0,496.994C131.381,610.935 364.854,666.797 603,720L0,720L0,496.994Z" style="fill:rgb(182,106,99);"/>
                </g>
                <g transform="matrix(0.988319,0,0,1.16688,15.2402,0)">
                    <path d="M80,720C228.82,577.47 478.828,536.822 843.211,496.994C1138.62,464.704 1203.91,189.526 1239,0L1280,0L1280,720L80,720" style="fill:rgb(227,223,185);"/>
                </g>
                <g id="Noodles" transform="matrix(0.994748,0,0,1.16688,3.49691,0)">
                    <path d="M174,720C477.68,620.194 648.833,617.119 875.604,575.218C977.508,556.389 1061.1,507.034 1125.31,438.76C1230.9,326.471 1284.06,163.005 1280,0" style="fill:none;stroke:rgb(213,203,162);stroke-width:10.77px;"/>
                    <g transform="matrix(1.07496,0,0,1.07496,-95.7552,-53.9729)">
                        <path d="M174,720C477.68,620.194 648.155,616.3 873.994,569.636C1122.32,518.327 1255.42,304.816 1279.82,50.209" style="fill:none;stroke:rgb(213,203,162);stroke-width:10.02px;"/>
                    </g>
                    <g transform="matrix(1.07496,0,0,1.07496,-95.7552,-53.9729)">
                        <path d="M174,720C296.854,644.892 599.119,558.633 816.087,556.438C1057.92,553.992 1252.4,307.414 1264,50.209" style="fill:none;stroke:rgb(213,203,162);stroke-width:10.02px;"/>
                    </g>
                    <g transform="matrix(0.921425,0,0,0.921425,100.672,56.574)">
                        <path d="M174,720C477.68,620.194 648.356,614.452 875.604,575.218C1145.41,528.637 1286.08,270.122 1280,0" style="fill:none;stroke:rgb(213,203,162);stroke-width:11.69px;"/>
                    </g>
                    <g transform="matrix(0.846262,0,0,0.846262,195.75,110.692)">
                        <path d="M174,720C477.68,620.194 648.306,614.159 875.604,575.218C1149.08,528.366 1296.3,269.367 1280,0" style="fill:none;stroke:rgb(213,203,162);stroke-width:12.73px;"/>
                    </g>
                    <g transform="matrix(0.789363,0,0,0.789363,268.651,151.659)">
                        <path d="M174,720C487.596,622.107 701.339,620.426 883.205,582.819C1118.29,534.208 1304.14,339.674 1281.22,60.809" style="fill:none;stroke:rgb(213,203,162);stroke-width:13.65px;"/>
                    </g>
                    <g transform="matrix(0.675761,0,0,0.675761,412.907,233.174)">
                        <path d="M174,720C487.596,622.107 701.339,620.426 883.205,582.819C1118.29,534.208 1304.14,339.674 1281.22,60.809" style="fill:none;stroke:rgb(213,203,162);stroke-width:15.94px;"/>
                    </g>
                    <g transform="matrix(0.564864,0,0,0.564864,556.714,313.02)">
                        <path d="M174,720C487.596,622.107 701.339,620.426 883.205,582.819C1118.29,534.208 1304.14,339.674 1281.22,60.809" style="fill:none;stroke:rgb(213,203,162);stroke-width:19.07px;"/>
                    </g>
                    <g transform="matrix(0.472588,0,0,0.472588,676.847,379.737)">
                        <path d="M174,720C487.596,622.107 701.339,620.426 883.205,582.819C1118.29,534.208 1304.14,339.674 1281.22,60.809" style="fill:none;stroke:rgb(213,203,162);stroke-width:22.79px;"/>
                    </g>
                    <g transform="matrix(0.373372,0,0,0.373372,800.912,450.893)">
                        <path d="M174,720C487.596,622.107 701.339,620.426 883.205,582.819C1118.29,534.208 1304.14,339.674 1281.22,60.809" style="fill:none;stroke:rgb(213,203,162);stroke-width:28.85px;"/>
                    </g>
                    <g transform="matrix(0.294031,0,0,0.294031,902.988,508.297)">
                        <path d="M174,720C487.596,622.107 701.339,620.426 883.205,582.819C1118.29,534.208 1304.14,339.674 1281.22,60.809" style="fill:none;stroke:rgb(213,203,162);stroke-width:36.63px;"/>
                    </g>
                    <g transform="matrix(0.23155,0,0,0.23155,983.373,553.503)">
                        <path d="M174,720C487.596,622.107 701.339,620.426 883.205,582.819C1118.29,534.208 1304.14,339.674 1281.22,60.809" style="fill:none;stroke:rgb(213,203,162);stroke-width:46.52px;"/>
                    </g>
                    <g transform="matrix(0.166117,0,0,0.166117,1067.33,600.615)">
                        <path d="M174,720C487.596,622.107 701.339,620.426 883.205,582.819C1118.29,534.208 1304.14,339.674 1281.22,60.809" style="fill:none;stroke:rgb(213,203,162);stroke-width:64.84px;"/>
                    </g>
                    <g transform="matrix(0.10142,0,0,0.121252,1153.11,632.698)">
                        <path d="M174,720C487.596,622.107 701.339,620.426 883.205,582.819C1118.29,534.208 1304.14,339.674 1281.22,60.809" style="fill:none;stroke:rgb(213,203,162);stroke-width:97.65px;"/>
                    </g>
                </g>
                <g transform="matrix(1,0,0,1.16688,-13.0856,-1.16688)">
                    <path d="M61,568C62.911,580.676 67.849,590.413 75,598C66.494,601.663 57.207,601.869 47,598C45.767,583.644 51.338,574.312 61,568Z" style="fill:rgb(66,66,66);"/>
                </g>
                <g transform="matrix(0.410707,1.06392,-0.911768,0.479244,540.66,433.903)">
                    <path d="M61,568C62.911,580.676 67.849,590.413 75,598C66.494,601.663 57.207,601.869 47,598C45.767,583.644 51.338,574.312 61,568Z" style="fill:rgb(238,220,153);"/>
                </g>
                <g transform="matrix(-0.903718,1.19186,-0.68183,-0.703936,577.092,1092.07)">
                    <path d="M61,568C62.911,580.676 67.849,590.413 75,598C66.494,601.663 57.207,601.869 47,598C45.767,583.644 51.338,574.312 61,568Z" style="fill:rgb(238,168,153);"/>
                </g>
            </g>
            <g id="Logo" transform="matrix(1,0,0,1.16688,100,-262.053)">
                <g transform="matrix(0.622959,0,0,0.629856,-334.388,142.83)">
                    <g transform="matrix(1,0,0,1,-81.5,95)">
                        <circle cx="981.5" cy="493.5" r="217.5" style="fill:rgb(69,69,69);"/>
                    </g>
                    <g transform="matrix(0.885057,0,0,0.885057,31.3161,151.724)">
                        <circle cx="981.5" cy="493.5" r="217.5" style="fill:rgb(200,95,95);"/>
                    </g>
                    <g transform="matrix(1,0,0,1,-81.5,95)">
                        <path d="M854.68,348.726C851.865,380.315 869.127,409.381 900,429C969.993,473.479 1053.42,457.932 1082,521C1097.32,554.804 1106.65,595.767 1107.92,638.621C1074.09,668.123 1029.87,686 981.5,686C875.256,686 789,599.744 789,493.5C789,435.813 814.429,384.019 854.68,348.726Z" style="fill:rgb(164,70,71);"/>
                    </g>
                </g>
                <g transform="matrix(0.485028,0,0,0.485028,323.044,18.0881)">
                    <path d="M263.333,1007.29C250.948,1007.29 238.982,1005.53 227.437,1002.02C215.893,998.501 206.756,993.837 200.028,988.027L210.349,964.861C216.925,970.06 224.991,974.303 234.548,977.591C244.105,980.878 253.7,982.522 263.333,982.522C275.261,982.522 284.168,980.611 290.055,976.788C295.942,972.965 298.885,967.919 298.885,961.649C298.885,957.062 297.242,953.278 293.954,950.296C290.666,947.314 286.5,944.982 281.454,943.3C276.407,941.618 269.526,939.707 260.81,937.566C248.577,934.66 238.676,931.755 231.107,928.85C223.538,925.944 217.039,921.395 211.611,915.202C206.183,909.009 203.468,900.638 203.468,890.087C203.468,881.218 205.877,873.152 210.693,865.888C215.51,858.625 222.774,852.853 232.483,848.571C242.193,844.289 254.082,842.149 268.15,842.149C277.937,842.149 287.57,843.372 297.051,845.819C306.531,848.265 314.712,851.782 321.593,856.37L312.189,879.536C305.155,875.407 297.815,872.272 290.17,870.132C282.524,867.991 275.108,866.92 267.921,866.92C256.147,866.92 247.392,868.908 241.658,872.884C235.924,876.86 233.057,882.135 233.057,888.71C233.057,893.298 234.701,897.044 237.988,899.949C241.276,902.855 245.443,905.148 250.489,906.83C255.535,908.513 262.416,910.424 271.132,912.565C283.059,915.317 292.845,918.184 300.491,921.166C308.137,924.148 314.674,928.697 320.102,934.813C325.53,940.93 328.245,949.187 328.245,959.585C328.245,968.454 325.836,976.482 321.02,983.669C316.203,990.856 308.901,996.59 299.115,1000.87C289.328,1005.15 277.401,1007.29 263.333,1007.29Z" style="fill:rgb(60,60,60);fill-rule:nonzero;"/>
                    <path d="M411.276,1006.61C398.584,1006.61 387.192,1003.93 377.1,998.578C367.008,993.226 359.133,985.771 353.475,976.214C347.817,966.657 344.988,955.839 344.988,943.759C344.988,931.679 347.817,920.898 353.475,911.418C359.133,901.937 366.97,894.521 376.985,889.169C387.001,883.817 398.431,881.141 411.276,881.141C423.356,881.141 433.945,883.588 443.043,888.481C452.142,893.374 458.984,900.408 463.572,909.583L441.552,922.428C438.035,916.77 433.639,912.526 428.364,909.698C423.088,906.869 417.316,905.454 411.046,905.454C400.343,905.454 391.474,908.933 384.44,915.891C377.406,922.848 373.889,932.137 373.889,943.759C373.889,955.38 377.368,964.669 384.325,971.627C391.283,978.584 400.19,982.063 411.046,982.063C417.316,982.063 423.088,980.649 428.364,977.82C433.639,974.991 438.035,970.748 441.552,965.09L463.572,977.935C458.831,987.109 451.912,994.181 442.814,999.151C433.716,1004.12 423.203,1006.61 411.276,1006.61Z" style="fill:rgb(60,60,60);fill-rule:nonzero;"/>
                    <path d="M556.695,881.141C572.139,881.141 584.525,885.652 593.853,894.674C603.18,903.696 607.844,917.076 607.844,934.813L607.844,1005L579.173,1005L579.173,938.483C579.173,927.779 576.65,919.713 571.604,914.285C566.558,908.857 559.371,906.142 550.043,906.142C539.493,906.142 531.159,909.315 525.042,915.661C518.926,922.007 515.868,931.143 515.868,943.071L515.868,1005L487.197,1005L487.197,834.809L515.868,834.809L515.868,896.738C520.608,891.692 526.457,887.831 533.414,885.155C540.372,882.479 548.132,881.141 556.695,881.141Z" style="fill:rgb(60,60,60);fill-rule:nonzero;"/>
                    <path d="M760.603,944.447C760.603,946.435 760.45,949.264 760.145,952.933L664.039,952.933C665.721,961.955 670.118,969.104 677.228,974.379C684.338,979.655 693.169,982.293 703.72,982.293C717.176,982.293 728.262,977.858 736.978,968.989L752.346,986.651C746.841,993.226 739.884,998.195 731.474,1001.56C723.063,1004.92 713.583,1006.61 703.032,1006.61C689.576,1006.61 677.725,1003.93 667.48,998.578C657.235,993.226 649.322,985.771 643.74,976.214C638.159,966.657 635.368,955.839 635.368,943.759C635.368,931.832 638.083,921.09 643.511,911.533C648.939,901.976 656.47,894.521 666.104,889.169C675.737,883.817 686.594,881.141 698.674,881.141C710.601,881.141 721.267,883.779 730.671,889.054C740.075,894.33 747.415,901.746 752.69,911.303C757.966,920.86 760.603,931.908 760.603,944.447ZM698.674,904.078C689.499,904.078 681.739,906.792 675.393,912.221C669.047,917.649 665.186,924.874 663.81,933.896L733.309,933.896C732.085,925.027 728.339,917.84 722.069,912.335C715.8,906.83 708.002,904.078 698.674,904.078Z" style="fill:rgb(60,60,60);fill-rule:nonzero;"/>
                    <path d="M882.627,982.063L882.627,1005L776.888,1005L776.888,986.88L844.093,905.454L778.265,905.454L778.265,882.517L880.792,882.517L880.792,900.638L813.358,982.063L882.627,982.063Z" style="fill:rgb(60,60,60);fill-rule:nonzero;"/>
                    <path d="M1097.77,882.517L1052.59,1005L1025.07,1005L993.412,920.593L961.3,1005L933.776,1005L888.82,882.517L915.885,882.517L948.226,972.888L981.943,882.517L1006.03,882.517L1039.06,973.347L1072.31,882.517L1097.77,882.517Z" style="fill:rgb(60,60,60);fill-rule:nonzero;"/>
                    <path d="M1160.39,881.141C1178.43,881.141 1192.24,885.461 1201.79,894.101C1211.35,902.74 1216.13,915.776 1216.13,933.208L1216.13,1005L1189.06,1005L1189.06,990.091C1185.55,995.443 1180.54,999.533 1174.04,1002.36C1167.54,1005.19 1159.7,1006.61 1150.53,1006.61C1141.35,1006.61 1133.33,1005.04 1126.44,1001.9C1119.56,998.769 1114.25,994.411 1110.5,988.83C1106.76,983.248 1104.88,976.941 1104.88,969.907C1104.88,958.897 1108.98,950.066 1117.16,943.415C1125.34,936.763 1138.22,933.437 1155.8,933.437L1187.46,933.437L1187.46,931.602C1187.46,923.039 1184.9,916.464 1179.77,911.877C1174.65,907.289 1167.04,904.996 1156.95,904.996C1150.07,904.996 1143.3,906.066 1136.65,908.207C1130,910.347 1124.38,913.329 1119.79,917.152L1108.56,896.28C1114.98,891.386 1122.7,887.64 1131.72,885.041C1140.74,882.441 1150.3,881.141 1160.39,881.141ZM1156.49,985.733C1163.68,985.733 1170.06,984.089 1175.64,980.802C1181.23,977.514 1185.16,972.812 1187.46,966.696L1187.46,952.475L1157.87,952.475C1141.35,952.475 1133.1,957.903 1133.1,968.76C1133.1,973.959 1135.16,978.087 1139.29,981.146C1143.42,984.204 1149.15,985.733 1156.49,985.733Z" style="fill:rgb(60,60,60);fill-rule:nonzero;"/>
                    <path d="M1322.33,881.141C1337.77,881.141 1350.16,885.652 1359.48,894.674C1368.81,903.696 1373.48,917.076 1373.48,934.813L1373.48,1005L1344.8,1005L1344.8,938.483C1344.8,927.779 1342.28,919.713 1337.23,914.285C1332.19,908.857 1325,906.142 1315.67,906.142C1305.12,906.142 1296.79,909.315 1290.67,915.661C1284.56,922.007 1281.5,931.143 1281.5,943.071L1281.5,1005L1252.83,1005L1252.83,882.517L1280.12,882.517L1280.12,898.344C1284.86,892.686 1290.83,888.405 1298.01,885.499C1305.2,882.594 1313.3,881.141 1322.33,881.141Z" style="fill:rgb(60,60,60);fill-rule:nonzero;"/>
                </g>
                <g transform="matrix(1,0,0,1,8.582,89.9619)">
                    <path d="M440.103,514.044C435.299,514.044 430.97,512.99 427.118,510.883C423.265,508.775 420.24,505.863 418.042,502.146C415.843,498.43 414.744,494.283 414.744,489.705C414.744,485.127 415.843,480.98 418.042,477.263C420.24,473.547 423.265,470.635 427.118,468.527C430.97,466.42 435.299,465.366 440.103,465.366C444.862,465.366 449.168,466.42 453.021,468.527C456.873,470.635 459.887,473.535 462.063,477.229C464.238,480.923 465.326,485.082 465.326,489.705C465.326,494.328 464.238,498.486 462.063,502.18C459.887,505.874 456.873,508.775 453.021,510.883C449.168,512.99 444.862,514.044 440.103,514.044ZM440.103,507.993C443.593,507.993 446.732,507.2 449.519,505.614C452.307,504.027 454.505,501.84 456.114,499.053C457.723,496.266 458.527,493.149 458.527,489.705C458.527,486.26 457.723,483.144 456.114,480.357C454.505,477.569 452.307,475.382 449.519,473.796C446.732,472.21 443.593,471.417 440.103,471.417C436.613,471.417 433.452,472.21 430.619,473.796C427.786,475.382 425.565,477.569 423.956,480.357C422.347,483.144 421.543,486.26 421.543,489.705C421.543,493.149 422.347,496.266 423.956,499.053C425.565,501.84 427.786,504.027 430.619,505.614C433.452,507.2 436.613,507.993 440.103,507.993Z" style="fill:rgb(87,141,174);fill-rule:nonzero;"/>
                    <path d="M481.031,483.518C482.164,481.433 483.841,479.847 486.062,478.759C488.283,477.671 490.979,477.127 494.152,477.127L494.152,483.45C493.79,483.405 493.291,483.382 492.656,483.382C489.121,483.382 486.345,484.436 484.328,486.544C482.311,488.651 481.303,491.654 481.303,495.552L481.303,513.5L474.776,513.5L474.776,477.467L481.031,477.467L481.031,483.518Z" style="fill:rgb(87,141,174);fill-rule:nonzero;"/>
                    <path d="M535.828,463.054L535.828,513.5L529.573,513.5L529.573,507.789C528.123,509.783 526.287,511.302 524.066,512.344C521.845,513.387 519.398,513.908 516.723,513.908C513.234,513.908 510.106,513.137 507.341,511.596C504.577,510.055 502.412,507.891 500.849,505.104C499.285,502.316 498.503,499.11 498.503,495.484C498.503,491.858 499.285,488.662 500.849,485.898C502.412,483.133 504.577,480.98 507.341,479.439C510.106,477.898 513.234,477.127 516.723,477.127C519.307,477.127 521.686,477.615 523.862,478.589C526.038,479.564 527.851,481.003 529.301,482.906L529.301,463.054L535.828,463.054ZM517.267,508.197C519.534,508.197 521.596,507.665 523.454,506.599C525.312,505.534 526.763,504.039 527.805,502.112C528.848,500.186 529.369,497.977 529.369,495.484C529.369,492.991 528.848,490.781 527.805,488.855C526.763,486.929 525.312,485.444 523.454,484.402C521.596,483.359 519.534,482.838 517.267,482.838C514.956,482.838 512.882,483.359 511.047,484.402C509.211,485.444 507.761,486.929 506.696,488.855C505.63,490.781 505.098,492.991 505.098,495.484C505.098,497.977 505.63,500.186 506.696,502.112C507.761,504.039 509.211,505.534 511.047,506.599C512.882,507.665 514.956,508.197 517.267,508.197Z" style="fill:rgb(87,141,174);fill-rule:nonzero;"/>
                    <path d="M580.766,495.688C580.766,496.186 580.721,496.843 580.63,497.659L551.396,497.659C551.804,500.832 553.198,503.381 555.578,505.308C557.957,507.234 560.914,508.197 564.45,508.197C568.756,508.197 572.223,506.747 574.852,503.846L578.455,508.061C576.823,509.965 574.795,511.415 572.37,512.412C569.945,513.409 567.237,513.908 564.246,513.908C560.439,513.908 557.062,513.126 554.116,511.562C551.17,509.999 548.892,507.812 547.283,505.002C545.674,502.192 544.87,499.019 544.87,495.484C544.87,491.994 545.652,488.844 547.215,486.034C548.779,483.224 550.932,481.037 553.674,479.473C556.416,477.909 559.509,477.127 562.954,477.127C566.399,477.127 569.469,477.909 572.166,479.473C574.863,481.037 576.971,483.224 578.489,486.034C580.007,488.844 580.766,492.062 580.766,495.688ZM562.954,482.634C559.827,482.634 557.209,483.586 555.102,485.49C552.994,487.393 551.759,489.886 551.396,492.968L574.512,492.968C574.149,489.931 572.914,487.45 570.806,485.524C568.699,483.597 566.081,482.634 562.954,482.634Z" style="fill:rgb(87,141,174);fill-rule:nonzero;"/>
                    <path d="M596.063,483.518C597.196,481.433 598.873,479.847 601.094,478.759C603.315,477.671 606.012,477.127 609.185,477.127L609.185,483.45C608.822,483.405 608.323,483.382 607.689,483.382C604.154,483.382 601.378,484.436 599.361,486.544C597.344,488.651 596.335,491.654 596.335,495.552L596.335,513.5L589.809,513.5L589.809,477.467L596.063,477.467L596.063,483.518Z" style="fill:rgb(87,141,174);fill-rule:nonzero;"/>
                    <path d="M651.404,513.908C647.823,513.908 644.605,513.115 641.75,511.528C638.895,509.942 636.662,507.755 635.053,504.968C633.444,502.18 632.64,499.019 632.64,495.484C632.64,491.948 633.444,488.787 635.053,486C636.662,483.212 638.895,481.037 641.75,479.473C644.605,477.909 647.823,477.127 651.404,477.127C654.985,477.127 658.191,477.909 661.024,479.473C663.857,481.037 666.078,483.212 667.687,486C669.296,488.787 670.1,491.948 670.1,495.484C670.1,499.019 669.296,502.18 667.687,504.968C666.078,507.755 663.857,509.942 661.024,511.528C658.191,513.115 654.985,513.908 651.404,513.908ZM651.404,508.197C653.716,508.197 655.789,507.665 657.625,506.599C659.46,505.534 660.899,504.039 661.942,502.112C662.984,500.186 663.506,497.977 663.506,495.484C663.506,492.991 662.984,490.781 661.942,488.855C660.899,486.929 659.46,485.444 657.625,484.402C655.789,483.359 653.716,482.838 651.404,482.838C649.092,482.838 647.019,483.359 645.183,484.402C643.348,485.444 641.897,486.929 640.832,488.855C639.767,490.781 639.234,492.991 639.234,495.484C639.234,497.977 639.767,500.186 640.832,502.112C641.897,504.039 643.348,505.534 645.183,506.599C647.019,507.665 649.092,508.197 651.404,508.197Z" style="fill:rgb(87,141,174);fill-rule:nonzero;"/>
                    <path d="M698.382,477.127C702.96,477.127 706.597,478.453 709.294,481.105C711.991,483.756 713.339,487.643 713.339,492.764L713.339,513.5L706.813,513.5L706.813,493.512C706.813,490.022 705.974,487.393 704.297,485.626C702.62,483.858 700.218,482.974 697.091,482.974C693.555,482.974 690.768,484.005 688.728,486.068C686.689,488.13 685.669,491.087 685.669,494.94L685.669,513.5L679.142,513.5L679.142,477.467L685.397,477.467L685.397,482.906C686.711,481.048 688.49,479.62 690.734,478.623C692.977,477.626 695.527,477.127 698.382,477.127Z" style="fill:rgb(87,141,174);fill-rule:nonzero;"/>
                    <rect x="725.441" y="463.054" width="6.527" height="50.446" style="fill:rgb(87,141,174);fill-rule:nonzero;"/>
                    <path d="M744.409,477.467L750.936,477.467L750.936,513.5L744.409,513.5L744.409,477.467ZM747.672,470.533C746.403,470.533 745.349,470.125 744.511,469.309C743.672,468.493 743.253,467.496 743.253,466.318C743.253,465.139 743.672,464.131 744.511,463.292C745.349,462.454 746.403,462.035 747.672,462.035C748.941,462.035 749.995,462.431 750.834,463.224C751.672,464.017 752.091,465.003 752.091,466.182C752.091,467.405 751.672,468.437 750.834,469.275C749.995,470.114 748.941,470.533 747.672,470.533Z" style="fill:rgb(87,141,174);fill-rule:nonzero;"/>
                    <path d="M782.617,477.127C787.195,477.127 790.832,478.453 793.529,481.105C796.226,483.756 797.574,487.643 797.574,492.764L797.574,513.5L791.047,513.5L791.047,493.512C791.047,490.022 790.209,487.393 788.532,485.626C786.855,483.858 784.453,482.974 781.325,482.974C777.79,482.974 775.003,484.005 772.963,486.068C770.924,488.13 769.904,491.087 769.904,494.94L769.904,513.5L763.377,513.5L763.377,477.467L769.632,477.467L769.632,482.906C770.946,481.048 772.725,479.62 774.969,478.623C777.212,477.626 779.762,477.127 782.617,477.127Z" style="fill:rgb(87,141,174);fill-rule:nonzero;"/>
                    <path d="M842.445,495.688C842.445,496.186 842.4,496.843 842.309,497.659L813.075,497.659C813.483,500.832 814.877,503.381 817.256,505.308C819.636,507.234 822.593,508.197 826.128,508.197C830.434,508.197 833.901,506.747 836.53,503.846L840.133,508.061C838.502,509.965 836.474,511.415 834.049,512.412C831.624,513.409 828.916,513.908 825.924,513.908C822.117,513.908 818.74,513.126 815.794,511.562C812.848,509.999 810.571,507.812 808.962,505.002C807.353,502.192 806.548,499.019 806.548,495.484C806.548,491.994 807.33,488.844 808.894,486.034C810.457,483.224 812.61,481.037 815.352,479.473C818.095,477.909 821.188,477.127 824.633,477.127C828.077,477.127 831.148,477.909 833.845,479.473C836.541,481.037 838.649,483.224 840.167,486.034C841.686,488.844 842.445,492.062 842.445,495.688ZM824.633,482.634C821.505,482.634 818.888,483.586 816.78,485.49C814.673,487.393 813.438,489.886 813.075,492.968L836.19,492.968C835.828,489.931 834.593,487.45 832.485,485.524C830.377,483.597 827.76,482.634 824.633,482.634Z" style="fill:rgb(87,141,174);fill-rule:nonzero;"/>
                </g>
            </g>
        </g>
    </g>
</svg>
