<?xml version="1.0" encoding="UTF-8" standalone="no"?>
<!DOCTYPE svg PUBLIC "-//W3C//DTD SVG 1.1//EN" "http://www.w3.org/Graphics/SVG/1.1/DTD/svg11.dtd">
<svg width="100%" height="100%" viewBox="0 0 400 400" version="1.1" xmlns="http://www.w3.org/2000/svg" xmlns:xlink="http://www.w3.org/1999/xlink" xml:space="preserve" xmlns:serif="http://www.serif.com/" style="fill-rule:evenodd;clip-rule:evenodd;stroke-linejoin:round;stroke-miterlimit:1.41421;">
    <g id="Plate" transform="matrix(1,0,0,1,0,73.0265)">
        <path d="M131.579,253.947C117.269,236.823 77.12,229.522 0,223.484L0,202.632L400,202.632L400,223.484C322.88,229.522 282.731,236.823 268.421,253.947L131.579,253.947Z" style="fill:rgb(68,68,68);"/>
        <path d="M120.796,0.352L120.825,0.376L121.215,0.706L121.631,1.063L122.046,1.422L122.458,1.783L122.869,2.146L123.073,2.328L123.277,2.511L123.48,2.694L123.683,2.878L123.885,3.062L124.086,3.247L124.287,3.433L124.487,3.619L124.687,3.806L124.886,3.993L125.085,4.181L125.283,4.369L125.677,4.747L125.874,4.937L126.264,5.319L126.459,5.511L126.652,5.704L126.846,5.897L127.038,6.09L127.23,6.284L127.422,6.479L127.612,6.675L127.803,6.871L128.181,7.265L128.557,7.661L128.744,7.861L128.93,8.061L129.115,8.261L129.3,8.462L129.485,8.664L129.851,9.07L130.034,9.274L130.215,9.478L130.396,9.683L130.756,10.095L130.935,10.303L131.291,10.719L131.467,10.928L131.644,11.138L131.994,11.56L132.168,11.772L132.341,11.985L132.513,12.198L132.685,12.413L133.027,12.843L133.365,13.277L133.701,13.713L133.867,13.932L134.033,14.152L134.198,14.373L134.363,14.595L134.526,14.817L134.689,15.04L134.851,15.264L135.173,15.714L135.332,15.94L135.338,15.948L135.489,16.169L135.645,16.398L135.953,16.858L136.107,17.09L136.259,17.322L136.411,17.555L136.561,17.788L136.711,18.023L136.86,18.258L137.008,18.494L137.156,18.731L137.302,18.969L137.448,19.208L137.593,19.447L137.737,19.687L137.88,19.928L138.022,20.17L138.163,20.412L138.443,20.9L138.581,21.145L138.719,21.391L138.856,21.638L138.992,21.885L139.127,22.133L139.261,22.383L139.394,22.633L139.658,23.135L139.788,23.388L140.046,23.896L140.173,24.151L140.3,24.407L140.426,24.664L140.674,25.18L140.797,25.44L140.918,25.7L141.039,25.962L141.159,26.224L141.278,26.487L141.396,26.751L141.628,27.281L141.743,27.548L141.857,27.816L141.97,28.084L142.081,28.353L142.192,28.624L142.302,28.895L142.411,29.167L142.518,29.44L142.625,29.714L142.73,29.988L142.835,30.264L143.041,30.818L143.142,31.097L143.242,31.376L143.341,31.656L143.44,31.938L143.537,32.22L143.632,32.503L143.727,32.787L143.821,33.072L143.914,33.358L144.005,33.645L144.096,33.933L144.185,34.222L144.273,34.511L144.36,34.802L144.446,35.094L144.531,35.386L144.615,35.68L144.697,35.974L144.779,36.27L144.859,36.566L144.938,36.864L145.016,37.162L145.093,37.461L145.168,37.761L145.243,38.063L145.316,38.365L145.388,38.668L145.459,38.972L145.529,39.277L145.597,39.584L145.664,39.891L145.73,40.199L145.795,40.508L145.859,40.818L145.922,41.129L145.983,41.441L146.043,41.754L146.091,42.009L146.101,42.068L146.155,42.384L146.207,42.7L146.258,43.017L146.308,43.336L146.357,43.655L146.404,43.975L146.451,44.296L146.495,44.618L146.539,44.942L146.581,45.266L146.622,45.591L146.662,45.917L146.701,46.244L146.738,46.572L146.774,46.901L146.808,47.231L146.842,47.562L146.874,47.894L146.904,48.227L146.934,48.561L146.962,48.896L146.989,49.232L147.014,49.569L147.038,49.906L147.061,50.245L147.082,50.585L147.102,50.926L147.121,51.268L147.139,51.611L147.155,51.955L147.183,52.645L147.195,52.992L147.205,53.34L147.215,53.689L147.222,54.039L147.229,54.39L147.234,54.742L147.238,55.095L147.24,55.449L147.241,55.804L147.241,56.16L147.239,56.517L147.236,56.875L147.231,57.234L147.229,57.386L147.223,57.594L147.211,57.955L147.198,58.317L147.184,58.679L147.168,59.043L147.151,59.408L147.132,59.774L147.112,60.141L147.09,60.508L147.067,60.877L147.043,61.247L147.017,61.618L146.99,61.99L146.961,62.362L146.931,62.736L146.899,63.111L146.866,63.487L146.831,63.864L146.795,64.242L146.757,64.621L146.718,65.001L146.678,65.382L146.636,65.764L146.592,66.147L146.547,66.531L146.501,66.917L146.453,67.303L146.404,67.69L146.353,68.078L146.3,68.468L146.246,68.858L146.191,69.25L146.134,69.642L146.096,69.933L146.075,70.152L146.035,70.482L145.992,70.81L145.948,71.138L145.901,71.465L145.852,71.79L145.801,72.115L145.749,72.439L145.694,72.762L145.692,72.774L145.633,73.082L145.57,73.402L145.504,73.72L145.437,74.038L145.369,74.354L145.298,74.669L145.225,74.984L145.151,75.297L145.074,75.609L144.996,75.92L144.916,76.23L144.834,76.538L144.751,76.846L144.666,77.153L144.579,77.458L144.49,77.763L144.399,78.066L144.307,78.368L144.213,78.669L144.118,78.969L144.021,79.268L143.922,79.566L143.822,79.863L143.72,80.159L143.616,80.453L143.511,80.747L143.404,81.039L143.296,81.33L143.186,81.621L143.075,81.91L142.962,82.198L142.848,82.485L142.732,82.77L142.615,83.055L142.497,83.339L142.377,83.621L142.256,83.903L142.133,84.183L142.009,84.463L141.883,84.741L141.757,85.018L141.629,85.294L141.499,85.569L141.369,85.843L141.237,86.116L141.104,86.388L140.969,86.658L140.834,86.928L140.697,87.197L140.559,87.464L140.42,87.731L140.28,87.996L140.278,88.001L140.134,88.258L139.986,88.518L139.838,88.777L139.688,89.035L139.538,89.293L139.386,89.549L139.233,89.804L139.08,90.058L138.925,90.31L138.77,90.562L138.613,90.813L138.456,91.063L138.298,91.311L138.139,91.559L137.978,91.805L137.818,92.051L137.656,92.295L137.493,92.539L137.33,92.781L137.166,93.023L137.001,93.263L136.835,93.502L136.669,93.741L136.501,93.978L136.333,94.215L136.165,94.45L135.995,94.685L135.825,94.918L135.655,95.151L135.483,95.382L135.311,95.613L135.139,95.842L134.966,96.071L134.792,96.299L134.617,96.526L134.442,96.752L134.267,96.977L134.091,97.201L133.915,97.424L133.738,97.646L133.56,97.868L133.382,98.088L133.204,98.308L133.025,98.526L132.845,98.744L132.666,98.961L132.486,99.177L132.305,99.392L132.124,99.607L131.943,99.82L131.758,100.036L131.607,100.212L131.392,100.451L131.017,100.862L130.642,101.269L130.265,101.674L129.888,102.075L129.51,102.473L129.131,102.868L128.752,103.26L128.373,103.648L127.993,104.034L127.613,104.416L127.233,104.796L126.853,105.173L126.48,105.54L126.473,105.546L126.088,105.912L125.703,106.274L125.319,106.634L124.935,106.991L124.552,107.345L124.169,107.697L123.788,108.046L123.407,108.393L123.028,108.737L122.65,109.079L122.273,109.418L121.896,109.756L121.151,110.422L120.662,110.857L120.408,111.076L119.665,111.713L118.205,112.963L117.489,113.576L116.785,114.182L116.09,114.782L115.75,115.077L115.411,115.372L115.076,115.665L114.744,115.956L114.415,116.245L114.091,116.533L113.77,116.82L113.452,117.104L113.139,117.387L112.829,117.669L112.524,117.948L112.223,118.227L111.926,118.503L111.634,118.778L111.346,119.052L111.063,119.324L110.784,119.594L110.51,119.863L110.241,120.13L109.977,120.396L109.715,120.664L109.59,120.792L109.464,120.923L109.339,121.053L109.215,121.184L109.093,121.314L108.972,121.443L108.852,121.572L108.771,121.661L108.733,121.7L108.614,121.826L108.496,121.952L108.38,122.078L108.265,122.203L108.151,122.328L108.039,122.452L107.928,122.576L107.819,122.699L107.711,122.823L107.603,122.948L107.423,123.159L107.244,123.371L107.066,123.584L106.889,123.796L106.713,124.008L106.539,124.219L106.366,124.43L106.195,124.641L106.025,124.852L105.857,125.062L105.69,125.272L105.524,125.481L105.36,125.691L105.197,125.899L105.035,126.108L104.875,126.317L104.717,126.525L104.559,126.732L104.403,126.94L104.249,127.147L104.096,127.354L103.944,127.561L103.794,127.768L103.645,127.974L103.497,128.18L103.351,128.386L103.206,128.591L103.063,128.796L102.921,129.002L102.781,129.206L102.641,129.411L102.504,129.616L102.367,129.82L102.232,130.024L102.099,130.228L101.966,130.432L101.835,130.635L101.706,130.839L101.578,131.042L101.451,131.245L101.326,131.448L101.202,131.651L101.079,131.854L100.958,132.056L100.838,132.258L100.72,132.461L100.603,132.663L100.487,132.865L100.373,133.067L100.26,133.269L100.148,133.471L100.038,133.673L99.929,133.874L99.822,134.076L99.716,134.278L99.611,134.479L99.508,134.681L99.432,134.831L99.405,134.882L99.302,135.082L99.201,135.283L99.1,135.483L99.001,135.684L98.904,135.884L98.808,136.085L98.713,136.286L98.619,136.487L98.527,136.687L98.436,136.888L98.347,137.089L98.259,137.29L98.172,137.492L98.086,137.693L98.002,137.894L97.919,138.096L97.838,138.298L97.758,138.5L97.679,138.702L97.601,138.904L97.525,139.106L97.45,139.309L97.377,139.512L97.305,139.715L97.234,139.918L97.164,140.122L97.096,140.325L97.029,140.529L96.964,140.734L96.9,140.938L96.837,141.143L96.775,141.348L96.715,141.553L96.656,141.759L96.599,141.965L96.542,142.172L96.488,142.378L96.434,142.585L96.382,142.793L96.331,143.001L96.281,143.209L96.233,143.418L96.186,143.627L96.141,143.836L96.097,144.046L96.054,144.256L96.012,144.467L95.972,144.678L95.933,144.89L95.896,145.102L95.86,145.315L95.825,145.528L95.792,145.742L95.76,145.956L95.729,146.171L95.7,146.387L95.672,146.602L95.645,146.819L95.62,147.036L95.596,147.254L95.574,147.472L95.553,147.691L95.533,147.91L95.515,148.13L95.498,148.351L95.483,148.572L95.469,148.794L95.456,149.017L95.445,149.24L95.435,149.465L95.426,149.689L95.426,149.7L95.417,149.915L95.409,150.141L95.403,150.368L95.398,150.596L95.394,150.824L95.392,151.054L95.391,151.284L95.392,151.515L95.394,151.746L95.398,151.979L95.403,152.212L95.41,152.446L95.418,152.681L95.427,152.917L95.438,153.153L95.451,153.391L95.465,153.629L95.48,153.868L95.497,154.108L95.516,154.349L95.536,154.591L95.557,154.834L95.58,155.077L95.605,155.322L95.631,155.567L95.658,155.813L95.687,156.06L95.718,156.308L95.75,156.557L95.784,156.807L95.819,157.058L95.856,157.31L95.895,157.563L95.935,157.816L95.976,158.071L96.019,158.327L96.064,158.583L96.11,158.841L96.158,159.099L96.208,159.359L96.259,159.619L96.312,159.881L96.366,160.143L96.422,160.407L96.479,160.671L96.538,160.937L96.599,161.203L96.661,161.471L96.725,161.739L96.791,162.009L96.858,162.279L96.927,162.551L96.997,162.823L97.069,163.097L97.143,163.372L97.219,163.647L97.296,163.924L97.374,164.202L97.455,164.481L97.537,164.761L97.62,165.042L97.705,165.324L97.792,165.607L97.881,165.891L97.971,166.177L98.063,166.463L98.157,166.751L98.252,167.039L98.349,167.329L98.448,167.62L98.548,167.912L98.65,168.205L98.754,168.499L98.859,168.794L98.966,169.09L99.075,169.388L99.186,169.686L99.298,169.986L99.412,170.287L99.527,170.589L99.644,170.892L99.763,171.196L99.884,171.501L100.006,171.808L100.13,172.116L100.256,172.425L100.384,172.735L100.513,173.046L100.644,173.358L100.777,173.672L100.911,173.986L101.047,174.302L101.185,174.619L101.324,174.937L101.466,175.257L101.609,175.578L101.718,175.821L101.753,175.9L101.897,176.224L102.042,176.55L102.19,176.877L102.339,177.205L102.49,177.534L102.643,177.865L102.797,178.197L102.953,178.53L103.111,178.864L103.271,179.2L103.432,179.536L103.595,179.875L103.76,180.214L103.926,180.555L104.095,180.897L104.265,181.24L104.436,181.584L104.61,181.93L104.785,182.277L104.962,182.626L105.141,182.976L105.321,183.327L105.504,183.679L105.688,184.033L105.873,184.388L106.061,184.744L106.25,185.102L106.441,185.461L106.552,185.668L106.633,185.822L106.826,186.184L106.572,185.862L106.464,185.725L106.32,185.539L106.071,185.217L105.824,184.896L105.578,184.576L105.334,184.257L105.093,183.939L104.853,183.621L104.615,183.305L104.378,182.989L104.144,182.674L103.911,182.36L103.681,182.047L103.452,181.734L103.225,181.423L102.999,181.112L102.776,180.802L102.554,180.493L102.335,180.184L102.117,179.877L101.9,179.57L101.686,179.264L101.474,178.958L101.263,178.654L101.054,178.35L100.847,178.047L100.641,177.744L100.438,177.443L100.236,177.142L100.036,176.842L99.988,176.769L99.84,176.541L99.646,176.241L99.454,175.942L99.263,175.643L99.075,175.345L98.888,175.048L98.703,174.751L98.519,174.455L98.338,174.16L98.158,173.865L97.98,173.571L97.804,173.278L97.629,172.985L97.456,172.693L97.285,172.402L97.116,172.111L96.949,171.82L96.783,171.531L96.619,171.242L96.457,170.953L96.296,170.666L96.137,170.378L95.98,170.091L95.825,169.805L95.671,169.52L95.519,169.235L95.369,168.95L95.221,168.666L95.074,168.382L94.929,168.099L94.786,167.817L94.645,167.535L94.505,167.253L94.367,166.972L94.23,166.692L94.096,166.412L93.963,166.132L93.832,165.853L93.702,165.574L93.575,165.296L93.449,165.018L93.324,164.74L93.202,164.463L93.081,164.187L92.961,163.911L92.844,163.635L92.728,163.359L92.614,163.084L92.502,162.81L92.391,162.535L92.282,162.261L92.175,161.988L92.069,161.714L91.966,161.441L91.863,161.169L91.763,160.896L91.664,160.625L91.567,160.353L91.472,160.081L91.378,159.81L91.286,159.54L91.196,159.269L91.108,158.999L91.021,158.729L90.936,158.459L90.852,158.19L90.771,157.921L90.691,157.652L90.613,157.383L90.536,157.115L90.461,156.847L90.388,156.579L90.317,156.311L90.247,156.043L90.179,155.776L90.113,155.509L90.048,155.242L89.985,154.975L89.924,154.709L89.865,154.442L89.807,154.176L89.751,153.91L89.696,153.644L89.644,153.379L89.593,153.113L89.544,152.848L89.496,152.582L89.451,152.317L89.407,152.053L89.365,151.788L89.324,151.523L89.285,151.259L89.248,150.994L89.213,150.73L89.179,150.466L89.147,150.202L89.117,149.938L89.091,149.674L89.067,149.411L89.044,149.147L89.023,148.884L89.004,148.621L88.986,148.358L88.97,148.095L88.956,147.832L88.944,147.569L88.933,147.307L88.925,147.044L88.917,146.782L88.912,146.52L88.908,146.258L88.906,145.996L88.906,145.734L88.907,145.472L88.911,145.211L88.916,144.949L88.922,144.688L88.93,144.427L88.94,144.166L88.952,143.905L88.966,143.644L88.981,143.383L88.998,143.123L89.016,142.862L89.036,142.602L89.058,142.341L89.082,142.081L89.107,141.821L89.134,141.561L89.163,141.302L89.194,141.042L89.226,140.782L89.26,140.523L89.295,140.263L89.332,140.004L89.371,139.745L89.411,139.486L89.454,139.227L89.497,138.968L89.543,138.71L89.59,138.451L89.639,138.192L89.689,137.934L89.741,137.676L89.795,137.418L89.85,137.159L89.907,136.901L89.966,136.644L90.026,136.386L90.088,136.128L90.151,135.87L90.217,135.613L90.283,135.355L90.351,135.098L90.421,134.841L90.493,134.584L90.566,134.327L90.64,134.07L90.717,133.813L90.794,133.556L90.874,133.299L90.955,133.042L91.037,132.786L91.121,132.529L91.207,132.273L91.294,132.016L91.382,131.76L91.472,131.503L91.496,131.439L91.566,131.248L91.661,130.993L91.758,130.737L91.857,130.482L91.957,130.227L92.058,129.972L92.161,129.718L92.266,129.463L92.372,129.208L92.479,128.953L92.588,128.698L92.698,128.444L92.81,128.189L92.923,127.935L93.038,127.68L93.154,127.425L93.272,127.171L93.391,126.916L93.511,126.662L93.633,126.407L93.756,126.153L93.881,125.898L94.007,125.644L94.135,125.389L94.263,125.134L94.394,124.88L94.525,124.625L94.659,124.37L94.793,124.116L94.929,123.861L95.066,123.606L95.205,123.351L95.345,123.096L95.486,122.841L95.629,122.586L95.773,122.33L95.918,122.075L96.065,121.82L96.213,121.564L96.362,121.308L96.513,121.053L96.665,120.797L96.818,120.541L96.973,120.284L97.129,120.028L97.286,119.772L97.444,119.515L97.604,119.258L97.766,119.001L97.928,118.744L98.092,118.487L98.257,118.23L98.423,117.972L98.591,117.714L98.76,117.456L98.93,117.198L99.101,116.939L99.276,116.678L99.396,116.501L99.52,116.321L99.644,116.142L99.77,115.963L99.897,115.785L100.024,115.607L100.153,115.429L100.282,115.252L100.413,115.075L100.544,114.898L100.585,114.843L100.678,114.723L100.814,114.548L100.95,114.374L101.088,114.201L101.226,114.028L101.365,113.854L101.505,113.682L101.649,113.506L101.929,113.165L102.216,112.821L102.507,112.479L102.8,112.137L103.096,111.796L103.395,111.455L103.696,111.115L104,110.775L104.307,110.436L104.616,110.097L104.927,109.759L105.24,109.42L105.556,109.082L105.874,108.744L106.193,108.406L106.515,108.067L106.838,107.729L107.163,107.391L107.489,107.052L107.817,106.714L108.148,106.373L108.808,105.696L109.475,105.016L110.146,104.334L111.495,102.963L112.172,102.273L112.402,102.038L112.858,101.588L113.549,100.903L113.892,100.561L114.236,100.217L114.58,99.872L114.924,99.526L115.267,99.179L115.609,98.831L115.951,98.482L116.292,98.132L116.632,97.781L116.971,97.428L117.309,97.075L117.645,96.72L117.651,96.714L117.987,96.37L118.327,96.019L118.666,95.667L119.003,95.313L119.339,94.958L119.673,94.601L120.005,94.244L120.336,93.885L120.665,93.524L120.992,93.162L121.316,92.799L121.639,92.434L121.959,92.067L122.146,91.852L122.284,91.699L122.444,91.522L122.606,91.341L122.768,91.16L122.929,90.978L123.089,90.796L123.249,90.614L123.408,90.431L123.567,90.247L123.725,90.064L123.882,89.879L124.038,89.695L124.194,89.509L124.349,89.324L124.504,89.138L124.658,88.951L124.811,88.764L124.963,88.577L125.115,88.389L125.265,88.201L125.415,88.012L125.565,87.823L125.713,87.633L125.861,87.443L126.008,87.252L126.154,87.061L126.299,86.869L126.444,86.677L126.588,86.484L126.73,86.291L126.873,86.097L127.014,85.903L127.154,85.709L127.293,85.513L127.432,85.318L127.57,85.121L127.706,84.925L127.842,84.727L127.977,84.53L128.111,84.331L128.244,84.132L128.376,83.933L128.507,83.733L128.638,83.532L128.767,83.331L128.895,83.13L129.023,82.927L129.149,82.725L129.274,82.521L129.398,82.317L129.522,82.113L129.642,81.911L129.644,81.908L129.77,81.705L129.896,81.501L130.02,81.297L130.143,81.092L130.266,80.887L130.387,80.681L130.507,80.474L130.626,80.266L130.744,80.058L130.861,79.849L130.977,79.64L131.092,79.429L131.206,79.218L131.318,79.006L131.43,78.794L131.541,78.581L131.65,78.367L131.758,78.152L131.865,77.937L131.971,77.72L132.076,77.503L132.18,77.286L132.282,77.067L132.383,76.848L132.484,76.627L132.583,76.406L132.68,76.185L132.777,75.962L132.872,75.738L132.966,75.514L133.059,75.289L133.151,75.063L133.241,74.836L133.331,74.608L133.419,74.379L133.505,74.15L133.591,73.919L133.675,73.688L133.758,73.455L133.839,73.222L133.919,72.987L133.998,72.752L134.076,72.516L134.152,72.279L134.227,72.041L134.301,71.801L134.373,71.561L134.444,71.32L134.513,71.078L134.581,70.834L134.648,70.59L134.711,70.354L134.713,70.345L134.782,70.099L134.849,69.853L134.914,69.605L134.978,69.356L135.041,69.106L135.102,68.854L135.162,68.602L135.221,68.348L135.296,67.981L135.405,67.529L135.493,67.18L135.579,66.832L135.664,66.486L135.747,66.14L135.829,65.795L135.909,65.451L135.988,65.108L136.065,64.766L136.141,64.425L136.216,64.084L136.289,63.745L136.36,63.407L136.43,63.069L136.499,62.733L136.566,62.397L136.632,62.062L136.696,61.728L136.759,61.396L136.821,61.063L136.881,60.732L136.939,60.402L136.997,60.073L137.053,59.744L137.107,59.417L137.16,59.09L137.212,58.765L137.262,58.44L137.311,58.116L137.358,57.792L137.404,57.47L137.449,57.149L137.492,56.828L137.517,56.643L137.536,56.509L137.581,56.19L137.624,55.873L137.667,55.556L137.707,55.24L137.747,54.924L137.785,54.61L137.821,54.296L137.857,53.983L137.891,53.671L137.923,53.36L137.954,53.05L137.984,52.74L138.013,52.431L138.04,52.123L138.066,51.816L138.091,51.509L138.114,51.203L138.137,50.898L138.157,50.594L138.177,50.291L138.195,49.988L138.212,49.686L138.227,49.385L138.242,49.084L138.255,48.785L138.266,48.486L138.277,48.187L138.286,47.89L138.294,47.593L138.301,47.297L138.306,47.002L138.31,46.707L138.313,46.413L138.315,46.12L138.315,45.828L138.314,45.536L138.312,45.245L138.309,44.955L138.304,44.665L138.299,44.376L138.292,44.088L138.283,43.8L138.274,43.514L138.263,43.227L138.251,42.942L138.249,42.888L138.241,42.657L138.231,42.372L138.219,42.088L138.207,41.805L138.192,41.522L138.177,41.24L138.161,40.959L138.143,40.678L138.124,40.397L138.104,40.118L138.083,39.839L138.06,39.56L138.037,39.283L138.012,39.005L137.986,38.729L137.959,38.453L137.93,38.178L137.901,37.903L137.87,37.628L137.838,37.355L137.805,37.082L137.771,36.809L137.736,36.537L137.699,36.266L137.662,35.995L137.623,35.725L137.583,35.455L137.542,35.186L137.5,34.918L137.456,34.65L137.412,34.382L137.366,34.116L137.319,33.849L137.272,33.583L137.223,33.318L137.172,33.054L137.121,32.789L137.069,32.526L137.015,32.263L136.961,32L136.905,31.738L136.848,31.476L136.79,31.215L136.731,30.955L136.671,30.695L136.61,30.435L136.548,30.176L136.484,29.918L136.42,29.66L136.354,29.403L136.287,29.146L136.22,28.889L136.151,28.633L136.081,28.378L136.01,28.123L135.938,27.868L135.865,27.614L135.791,27.361L135.716,27.108L135.639,26.855L135.562,26.603L135.484,26.352L135.404,26.1L135.324,25.85L135.242,25.6L135.159,25.35L135.076,25.101L134.991,24.852L134.905,24.603L134.819,24.355L134.731,24.108L134.642,23.861L134.552,23.615L134.462,23.369L134.37,23.123L134.277,22.878L134.183,22.633L134.088,22.389L133.992,22.145L133.895,21.901L133.797,21.659L133.698,21.416L133.599,21.174L133.498,20.932L133.396,20.691L133.293,20.45L133.189,20.21L133.084,19.97L132.978,19.73L132.872,19.491L132.764,19.253L132.655,19.014L132.545,18.777L132.435,18.539L132.323,18.302L132.21,18.066L132.097,17.829L131.985,17.592L131.872,17.356L131.758,17.119L131.643,16.883L131.527,16.648L131.41,16.412L131.292,16.178L131.173,15.943L131.054,15.709L130.933,15.475L130.812,15.242L130.689,15.009L130.566,14.777L130.441,14.544L130.316,14.313L130.19,14.081L130.063,13.85L129.935,13.62L129.806,13.389L129.676,13.159L129.545,12.93L129.414,12.701L129.281,12.472L129.148,12.243L129.014,12.015L128.878,11.788L128.742,11.56L128.605,11.333L128.468,11.107L128.329,10.88L128.19,10.654L128.049,10.429L127.908,10.204L127.766,9.979L127.623,9.754L127.479,9.53L127.335,9.306L127.189,9.083L127.043,8.86L126.896,8.637L126.748,8.415L126.599,8.193L126.449,7.971L126.299,7.75L126.148,7.529L125.996,7.308L125.843,7.088L125.689,6.868L125.535,6.648L125.379,6.429L125.223,6.21L125.067,5.991L124.909,5.773L124.751,5.555L124.592,5.337L124.432,5.12L124.271,4.903L124.11,4.686L123.947,4.47L123.784,4.254L123.621,4.038L123.456,3.823L123.291,3.608L123.125,3.393L122.958,3.179L122.791,2.965L122.623,2.751L122.454,2.538L122.114,2.112L121.772,1.687L121.426,1.264L121.078,0.842L120.727,0.421L120.374,0L120.796,0.352Z" style="fill:rgb(68,68,68);"/>
        <path d="M211.26,0.352L211.289,0.376L211.678,0.706L212.095,1.063L212.51,1.422L212.922,1.783L213.332,2.146L213.537,2.328L213.74,2.511L213.944,2.694L214.348,3.062L214.55,3.247L214.751,3.433L214.951,3.619L215.151,3.806L215.35,3.993L215.549,4.181L215.747,4.369L216.141,4.747L216.337,4.937L216.533,5.128L216.728,5.319L216.922,5.511L217.116,5.704L217.502,6.09L217.694,6.284L217.885,6.479L218.076,6.675L218.266,6.871L218.456,7.068L218.645,7.265L218.833,7.463L219.02,7.661L219.394,8.061L219.579,8.261L219.764,8.462L219.948,8.664L220.132,8.867L220.315,9.07L220.679,9.478L220.86,9.683L221.22,10.095L221.399,10.303L221.577,10.511L221.754,10.719L221.931,10.928L222.107,11.138L222.283,11.349L222.457,11.56L222.631,11.772L222.805,11.985L222.977,12.198L223.149,12.413L223.32,12.628L223.49,12.843L223.66,13.06L223.829,13.277L223.997,13.495L224.164,13.713L224.331,13.932L224.497,14.152L224.662,14.373L224.99,14.817L225.153,15.04L225.315,15.264L225.476,15.489L225.636,15.714L225.796,15.94L225.802,15.948L225.953,16.169L226.108,16.398L226.263,16.628L226.417,16.858L226.723,17.322L227.025,17.788L227.175,18.023L227.324,18.258L227.472,18.494L227.62,18.731L227.766,18.969L227.912,19.208L228.056,19.447L228.2,19.687L228.343,19.928L228.627,20.412L228.907,20.9L229.045,21.145L229.183,21.391L229.32,21.638L229.456,21.885L229.591,22.133L229.725,22.383L229.858,22.633L229.99,22.884L230.121,23.135L230.252,23.388L230.51,23.896L230.637,24.151L230.764,24.407L230.889,24.664L231.014,24.922L231.138,25.18L231.382,25.7L231.503,25.962L231.623,26.224L231.742,26.487L231.859,26.751L231.976,27.016L232.092,27.281L232.207,27.548L232.321,27.816L232.433,28.084L232.545,28.353L232.656,28.624L232.766,28.895L232.874,29.167L232.982,29.44L233.089,29.714L233.194,29.988L233.299,30.264L233.402,30.541L233.504,30.818L233.606,31.097L233.706,31.376L233.805,31.656L233.903,31.938L234,32.22L234.096,32.503L234.191,32.787L234.285,33.072L234.377,33.358L234.469,33.645L234.559,33.933L234.649,34.222L234.737,34.511L234.824,34.802L234.91,35.094L234.995,35.386L235.161,35.974L235.323,36.566L235.402,36.864L235.48,37.162L235.556,37.461L235.632,37.761L235.78,38.365L235.852,38.668L235.923,38.972L235.992,39.277L236.061,39.584L236.128,39.891L236.194,40.199L236.259,40.508L236.323,40.818L236.385,41.129L236.447,41.441L236.507,41.754L236.554,42.009L236.565,42.068L236.671,42.7L236.722,43.017L236.772,43.336L236.821,43.655L236.868,43.975L236.914,44.296L236.959,44.618L237.003,44.942L237.045,45.266L237.086,45.591L237.126,45.917L237.165,46.244L237.202,46.572L237.238,46.901L237.272,47.231L237.306,47.562L237.338,47.894L237.368,48.227L237.398,48.561L237.426,48.896L237.452,49.232L237.478,49.569L237.502,49.906L237.525,50.245L237.546,50.585L237.566,50.926L237.585,51.268L237.602,51.611L237.618,51.955L237.633,52.3L237.646,52.645L237.658,52.992L237.669,53.34L237.678,53.689L237.686,54.039L237.693,54.39L237.698,54.742L237.702,55.095L237.704,55.449L237.705,55.804L237.705,56.16L237.703,56.517L237.7,56.875L237.695,57.234L237.693,57.386L237.687,57.594L237.675,57.955L237.662,58.317L237.648,58.679L237.632,59.043L237.615,59.408L237.596,59.774L237.576,60.141L237.554,60.508L237.531,60.877L237.507,61.247L237.481,61.618L237.453,61.99L237.425,62.362L237.394,62.736L237.363,63.111L237.33,63.487L237.295,63.864L237.259,64.242L237.221,64.621L237.182,65.001L237.142,65.382L237.1,65.764L237.056,66.147L237.011,66.531L236.965,66.917L236.917,67.303L236.867,67.69L236.816,68.078L236.764,68.468L236.71,68.858L236.654,69.25L236.597,69.642L236.559,69.933L236.539,70.152L236.499,70.482L236.456,70.81L236.411,71.138L236.365,71.465L236.316,71.79L236.265,72.115L236.212,72.439L236.158,72.762L236.155,72.774L236.096,73.082L236.033,73.402L235.968,73.72L235.901,74.038L235.832,74.354L235.761,74.669L235.689,74.984L235.614,75.297L235.538,75.609L235.46,75.92L235.38,76.23L235.298,76.538L235.215,76.846L235.129,77.153L235.042,77.458L234.954,77.763L234.863,78.066L234.771,78.368L234.677,78.669L234.582,78.969L234.485,79.268L234.386,79.566L234.285,79.863L234.183,80.159L234.08,80.453L233.975,80.747L233.868,81.039L233.76,81.33L233.65,81.621L233.539,81.91L233.426,82.198L233.312,82.485L233.196,82.77L233.079,83.055L232.961,83.339L232.841,83.621L232.719,83.903L232.597,84.183L232.473,84.463L232.347,84.741L232.22,85.018L232.092,85.294L231.963,85.569L231.833,85.843L231.701,86.116L231.568,86.388L231.433,86.658L231.298,86.928L231.161,87.197L231.023,87.464L230.884,87.731L230.744,87.996L230.741,88.001L230.597,88.258L230.45,88.518L230.302,88.777L230.152,89.035L230.001,89.293L229.85,89.549L229.697,89.804L229.544,90.058L229.389,90.31L229.234,90.562L229.077,90.813L228.92,91.063L228.761,91.311L228.602,91.559L228.442,91.805L228.281,92.051L228.12,92.295L227.957,92.539L227.794,92.781L227.629,93.023L227.464,93.263L227.299,93.502L227.132,93.741L226.965,93.978L226.797,94.215L226.628,94.45L226.459,94.685L226.289,94.918L226.118,95.151L225.947,95.382L225.775,95.613L225.602,95.842L225.429,96.071L225.256,96.299L225.081,96.526L224.906,96.752L224.731,96.977L224.555,97.201L224.378,97.424L224.201,97.646L224.024,97.868L223.846,98.088L223.667,98.308L223.488,98.526L223.309,98.744L223.129,98.961L222.949,99.177L222.769,99.392L222.588,99.607L222.407,99.82L222.222,100.036L222.071,100.212L221.855,100.451L221.481,100.862L221.105,101.269L220.729,101.674L220.352,102.075L219.974,102.473L219.595,102.868L219.216,103.26L218.836,103.648L218.457,104.034L218.077,104.416L217.697,104.796L217.317,105.173L216.944,105.54L216.937,105.546L216.552,105.912L216.167,106.274L215.782,106.634L215.398,106.991L215.015,107.345L214.633,107.697L214.252,108.046L213.871,108.393L213.492,108.737L213.113,109.079L212.737,109.418L212.36,109.756L211.615,110.422L211.126,110.857L210.872,111.076L210.129,111.713L208.668,112.963L207.953,113.576L207.249,114.182L206.554,114.782L206.214,115.077L205.875,115.372L205.54,115.665L205.208,115.956L204.879,116.245L204.554,116.533L204.233,116.82L203.916,117.104L203.603,117.387L203.293,117.669L202.988,117.948L202.687,118.227L202.39,118.503L202.098,118.778L201.81,119.052L201.526,119.324L201.248,119.594L200.974,119.863L200.705,120.13L200.441,120.396L200.178,120.664L200.054,120.792L199.928,120.923L199.803,121.053L199.679,121.184L199.557,121.314L199.436,121.443L199.316,121.572L199.235,121.661L199.197,121.7L199.078,121.826L198.96,121.952L198.844,122.078L198.729,122.203L198.615,122.328L198.503,122.452L198.392,122.576L198.283,122.699L198.175,122.823L198.066,122.948L197.887,123.159L197.708,123.371L197.529,123.584L197.352,123.796L197.177,124.008L197.003,124.219L196.83,124.43L196.659,124.641L196.489,124.852L196.321,125.062L196.153,125.272L195.988,125.481L195.824,125.691L195.661,125.899L195.499,126.108L195.339,126.317L195.18,126.525L195.023,126.732L194.867,126.94L194.713,127.147L194.56,127.354L194.408,127.561L194.257,127.768L194.109,127.974L193.961,128.18L193.815,128.386L193.67,128.591L193.527,128.796L193.385,129.002L193.244,129.206L193.105,129.411L192.967,129.616L192.831,129.82L192.696,130.024L192.562,130.228L192.43,130.432L192.299,130.635L192.17,130.839L192.042,131.042L191.915,131.245L191.79,131.448L191.666,131.651L191.543,131.854L191.422,132.056L191.302,132.258L191.184,132.461L191.067,132.663L190.951,132.865L190.837,133.067L190.724,133.269L190.612,133.471L190.502,133.673L190.393,133.874L190.286,134.076L190.18,134.278L190.075,134.479L189.972,134.681L189.895,134.831L189.869,134.882L189.766,135.082L189.664,135.283L189.564,135.483L189.465,135.684L189.368,135.884L189.271,136.085L189.177,136.286L189.083,136.487L188.991,136.687L188.9,136.888L188.811,137.089L188.722,137.29L188.636,137.492L188.55,137.693L188.466,137.894L188.383,138.096L188.302,138.298L188.221,138.5L188.143,138.702L188.065,138.904L187.989,139.106L187.914,139.309L187.841,139.512L187.769,139.715L187.698,139.918L187.628,140.122L187.56,140.325L187.493,140.529L187.428,140.734L187.363,140.938L187.301,141.143L187.239,141.348L187.179,141.553L187.12,141.759L187.062,141.965L187.006,142.172L186.951,142.378L186.898,142.585L186.846,142.793L186.795,143.001L186.745,143.209L186.697,143.418L186.65,143.627L186.604,143.836L186.56,144.046L186.517,144.256L186.476,144.467L186.436,144.678L186.397,144.89L186.36,145.102L186.323,145.315L186.289,145.528L186.255,145.742L186.223,145.956L186.193,146.171L186.163,146.387L186.135,146.602L186.109,146.819L186.084,147.036L186.06,147.254L186.038,147.472L186.017,147.691L185.997,147.91L185.979,148.13L185.962,148.351L185.946,148.572L185.932,148.794L185.92,149.017L185.908,149.24L185.899,149.465L185.89,149.689L185.89,149.7L185.881,149.915L185.873,150.141L185.867,150.368L185.862,150.596L185.858,150.824L185.856,151.054L185.855,151.284L185.856,151.515L185.858,151.746L185.862,151.979L185.867,152.212L185.873,152.446L185.881,152.681L185.891,152.917L185.902,153.153L185.914,153.391L185.928,153.629L185.944,153.868L185.961,154.108L185.979,154.349L185.999,154.591L186.021,154.834L186.044,155.077L186.068,155.322L186.094,155.567L186.122,155.813L186.151,156.06L186.182,156.308L186.214,156.557L186.248,156.807L186.283,157.058L186.32,157.31L186.358,157.563L186.399,157.816L186.44,158.071L186.483,158.327L186.528,158.583L186.574,158.841L186.622,159.099L186.672,159.359L186.723,159.619L186.775,159.881L186.83,160.143L186.886,160.407L186.943,160.671L187.002,160.937L187.063,161.203L187.125,161.471L187.189,161.739L187.255,162.009L187.322,162.279L187.391,162.551L187.461,162.823L187.533,163.097L187.607,163.372L187.682,163.647L187.759,163.924L187.838,164.202L187.918,164.481L188,164.761L188.084,165.042L188.169,165.324L188.256,165.607L188.345,165.891L188.435,166.177L188.527,166.463L188.621,166.751L188.716,167.039L188.813,167.329L188.912,167.62L189.012,167.912L189.114,168.205L189.218,168.499L189.323,168.794L189.43,169.09L189.539,169.388L189.649,169.686L189.761,169.986L189.875,170.287L189.991,170.589L190.108,170.892L190.227,171.196L190.348,171.501L190.47,171.808L190.594,172.116L190.72,172.425L190.848,172.735L190.977,173.046L191.108,173.358L191.24,173.672L191.375,173.986L191.511,174.302L191.649,174.619L191.788,174.937L191.929,175.257L192.072,175.578L192.182,175.821L192.216,175.9L192.36,176.224L192.506,176.55L192.654,176.877L192.803,177.205L192.954,177.534L193.106,177.865L193.261,178.197L193.417,178.53L193.575,178.864L193.734,179.2L193.896,179.536L194.059,179.875L194.223,180.214L194.39,180.555L194.558,180.897L194.728,181.24L194.9,181.584L195.074,181.93L195.249,182.277L195.426,182.626L195.605,182.976L195.785,183.327L195.967,183.679L196.151,184.033L196.337,184.388L196.525,184.744L196.714,185.102L196.905,185.461L197.016,185.668L197.097,185.822L197.29,186.184L197.036,185.862L196.928,185.725L196.784,185.539L196.535,185.217L196.287,184.896L196.042,184.576L195.798,184.257L195.556,183.939L195.316,183.621L195.078,183.305L194.842,182.989L194.608,182.674L194.375,182.36L194.144,182.047L193.915,181.734L193.688,181.423L193.463,181.112L193.24,180.802L193.018,180.493L192.798,180.184L192.58,179.877L192.364,179.57L192.15,179.264L191.937,178.958L191.727,178.654L191.518,178.35L191.311,178.047L191.105,177.744L190.902,177.443L190.7,177.142L190.5,176.842L190.452,176.769L190.304,176.541L190.11,176.241L189.917,175.942L189.727,175.643L189.538,175.345L189.352,175.048L189.166,174.751L188.983,174.455L188.802,174.16L188.622,173.865L188.444,173.571L188.267,173.278L188.093,172.985L187.92,172.693L187.749,172.402L187.58,172.111L187.412,171.82L187.247,171.531L187.083,171.242L186.92,170.953L186.76,170.666L186.601,170.378L186.444,170.091L186.289,169.805L186.135,169.52L185.983,169.235L185.833,168.95L185.685,168.666L185.538,168.382L185.393,168.099L185.25,167.817L185.108,167.535L184.969,167.253L184.831,166.972L184.694,166.692L184.56,166.412L184.427,166.132L184.296,165.853L184.166,165.574L184.038,165.296L183.912,165.018L183.788,164.74L183.665,164.463L183.544,164.187L183.425,163.911L183.308,163.635L183.192,163.359L183.078,163.084L182.966,162.81L182.855,162.535L182.746,162.261L182.639,161.988L182.533,161.714L182.429,161.441L182.327,161.169L182.227,160.896L182.128,160.625L182.031,160.353L181.936,160.081L181.842,159.81L181.75,159.54L181.66,159.269L181.571,158.999L181.485,158.729L181.4,158.459L181.316,158.19L181.235,157.921L181.155,157.652L181.076,157.383L181,157.115L180.925,156.847L180.852,156.579L180.78,156.311L180.711,156.043L180.643,155.776L180.576,155.509L180.512,155.242L180.449,154.975L180.388,154.709L180.328,154.442L180.271,154.176L180.215,153.91L180.16,153.644L180.108,153.379L180.057,153.113L180.008,152.848L179.96,152.582L179.915,152.317L179.871,152.053L179.828,151.788L179.788,151.523L179.749,151.259L179.712,150.994L179.676,150.73L179.643,150.466L179.611,150.202L179.581,149.938L179.555,149.674L179.53,149.411L179.508,149.147L179.487,148.884L179.467,148.621L179.45,148.358L179.434,148.095L179.42,147.832L179.408,147.569L179.397,147.307L179.388,147.044L179.381,146.782L179.376,146.52L179.372,146.258L179.37,145.996L179.37,145.734L179.371,145.472L179.374,145.211L179.379,144.949L179.386,144.688L179.394,144.427L179.404,144.166L179.416,143.905L179.429,143.644L179.445,143.383L179.461,143.123L179.48,142.862L179.5,142.602L179.522,142.341L179.546,142.081L179.571,141.821L179.598,141.561L179.627,141.302L179.657,141.042L179.689,140.782L179.723,140.523L179.759,140.263L179.796,140.004L179.835,139.745L179.875,139.486L179.917,139.227L179.961,138.968L180.007,138.71L180.054,138.451L180.103,138.192L180.153,137.934L180.205,137.676L180.259,137.418L180.314,137.159L180.371,136.901L180.43,136.644L180.49,136.386L180.552,136.128L180.615,135.87L180.68,135.613L180.747,135.355L180.815,135.098L180.885,134.841L180.957,134.584L181.03,134.327L181.104,134.07L181.18,133.813L181.258,133.556L181.337,133.299L181.418,133.042L181.501,132.786L181.585,132.529L181.67,132.273L181.757,132.016L181.846,131.76L181.936,131.503L181.959,131.439L182.03,131.248L182.125,130.993L182.222,130.737L182.321,130.482L182.421,130.227L182.522,129.972L182.625,129.718L182.729,129.463L182.835,129.208L182.943,128.953L183.052,128.698L183.162,128.444L183.274,128.189L183.387,127.935L183.502,127.68L183.618,127.425L183.735,127.171L183.854,126.916L183.975,126.662L184.097,126.407L184.22,126.153L184.345,125.898L184.471,125.644L184.598,125.389L184.727,125.134L184.858,124.88L184.989,124.625L185.122,124.37L185.257,124.116L185.393,123.861L185.53,123.606L185.668,123.351L185.808,123.096L185.95,122.841L186.092,122.586L186.236,122.33L186.382,122.075L186.528,121.82L186.676,121.564L186.826,121.308L186.976,121.053L187.128,120.797L187.282,120.541L187.436,120.284L187.592,120.028L187.75,119.772L187.908,119.515L188.068,119.258L188.229,119.001L188.392,118.744L188.556,118.487L188.721,118.23L188.887,117.972L189.055,117.714L189.224,117.456L189.394,117.198L189.565,116.939L189.74,116.678L189.86,116.501L189.984,116.321L190.108,116.142L190.234,115.963L190.36,115.785L190.488,115.607L190.617,115.429L190.746,115.252L190.877,115.075L191.008,114.898L191.049,114.843L191.142,114.723L191.278,114.548L191.414,114.374L191.551,114.201L191.69,114.028L191.829,113.854L191.969,113.682L192.112,113.506L192.393,113.165L192.68,112.821L192.97,112.479L193.263,112.137L193.56,111.796L193.858,111.455L194.16,111.115L194.464,110.775L194.77,110.436L195.079,110.097L195.391,109.759L195.704,109.42L196.02,109.082L196.337,108.744L196.657,108.406L196.978,108.067L197.302,107.729L197.626,107.391L197.953,107.052L198.281,106.714L198.612,106.373L199.272,105.696L199.939,105.016L200.61,104.334L201.959,102.963L202.636,102.273L202.866,102.038L203.322,101.588L204.013,100.903L204.356,100.561L204.7,100.217L205.044,99.872L205.387,99.526L205.73,99.179L206.073,98.831L206.414,98.482L206.755,98.132L207.095,97.781L207.434,97.428L207.772,97.075L208.109,96.72L208.115,96.714L208.451,96.37L208.791,96.019L209.129,95.667L209.467,95.313L209.803,94.958L210.137,94.601L210.469,94.244L210.8,93.885L211.129,93.524L211.455,93.162L211.78,92.799L212.103,92.434L212.423,92.067L212.61,91.852L212.748,91.699L212.908,91.522L213.07,91.341L213.232,91.16L213.393,90.978L213.553,90.796L213.713,90.614L213.872,90.431L214.031,90.247L214.188,90.064L214.346,89.879L214.502,89.695L214.658,89.509L214.813,89.324L214.968,89.138L215.121,88.951L215.274,88.764L215.427,88.577L215.578,88.389L215.729,88.201L215.879,88.012L216.028,87.823L216.177,87.633L216.325,87.443L216.472,87.252L216.618,87.061L216.763,86.869L216.908,86.677L217.051,86.484L217.194,86.291L217.336,86.097L217.477,85.903L217.618,85.709L217.757,85.513L217.896,85.318L218.033,85.121L218.17,84.925L218.306,84.727L218.441,84.53L218.575,84.331L218.708,84.132L218.84,83.933L218.971,83.733L219.101,83.532L219.231,83.331L219.359,83.13L219.486,82.927L219.613,82.725L219.738,82.521L219.862,82.317L219.986,82.113L220.106,81.911L220.108,81.908L220.234,81.705L220.36,81.501L220.484,81.297L220.607,81.092L220.729,80.887L220.851,80.681L220.971,80.474L221.09,80.266L221.208,80.058L221.325,79.849L221.441,79.64L221.556,79.429L221.67,79.218L221.782,79.006L221.894,78.794L222.004,78.581L222.114,78.367L222.222,78.152L222.329,77.937L222.435,77.72L222.54,77.503L222.643,77.286L222.746,77.067L222.847,76.848L222.947,76.627L223.046,76.406L223.144,76.185L223.241,75.962L223.336,75.738L223.43,75.514L223.523,75.289L223.615,75.063L223.705,74.836L223.794,74.608L223.882,74.379L223.969,74.15L224.054,73.919L224.139,73.688L224.221,73.455L224.303,73.222L224.383,72.987L224.462,72.752L224.54,72.516L224.616,72.279L224.691,72.041L224.764,71.801L224.837,71.561L224.907,71.32L224.977,71.078L225.045,70.834L225.112,70.59L225.174,70.354L225.177,70.345L225.245,70.099L225.312,69.853L225.378,69.605L225.442,69.356L225.505,69.106L225.566,68.854L225.626,68.602L225.684,68.348L225.759,67.981L225.869,67.529L225.957,67.18L226.043,66.832L226.128,66.486L226.211,66.14L226.293,65.795L226.373,65.451L226.452,65.108L226.529,64.766L226.605,64.425L226.68,64.084L226.753,63.745L226.824,63.407L226.894,63.069L226.963,62.733L227.03,62.397L227.096,62.062L227.16,61.728L227.223,61.396L227.285,61.063L227.345,60.732L227.403,60.402L227.46,60.073L227.516,59.744L227.571,59.417L227.624,59.09L227.675,58.765L227.726,58.44L227.775,58.116L227.822,57.792L227.868,57.47L227.913,57.149L227.956,56.828L227.981,56.643L228,56.509L228.045,56.19L228.088,55.873L228.13,55.556L228.171,55.24L228.21,54.924L228.248,54.61L228.285,54.296L228.32,53.983L228.354,53.671L228.387,53.36L228.418,53.05L228.448,52.74L228.477,52.431L228.504,52.123L228.53,51.816L228.555,51.509L228.578,51.203L228.6,50.898L228.621,50.594L228.64,50.291L228.659,49.988L228.676,49.686L228.691,49.385L228.705,49.084L228.718,48.785L228.73,48.486L228.741,48.187L228.75,47.89L228.758,47.593L228.764,47.297L228.77,47.002L228.774,46.707L228.777,46.413L228.779,46.12L228.779,45.828L228.778,45.536L228.776,45.245L228.773,44.955L228.768,44.665L228.762,44.376L228.755,44.088L228.747,43.8L228.738,43.514L228.727,43.227L228.715,42.942L228.713,42.888L228.705,42.657L228.695,42.372L228.683,42.088L228.67,41.805L228.656,41.522L228.641,41.24L228.624,40.959L228.607,40.678L228.588,40.397L228.568,40.118L228.547,39.839L228.524,39.56L228.501,39.283L228.476,39.005L228.45,38.729L228.423,38.453L228.394,38.178L228.365,37.903L228.334,37.628L228.302,37.355L228.269,37.082L228.235,36.809L228.2,36.537L228.163,36.266L228.125,35.995L228.087,35.725L228.047,35.455L228.006,35.186L227.963,34.918L227.92,34.65L227.876,34.382L227.83,34.116L227.783,33.849L227.735,33.583L227.686,33.318L227.636,33.054L227.585,32.789L227.533,32.526L227.479,32.263L227.424,32L227.369,31.738L227.312,31.476L227.254,31.215L227.195,30.955L227.135,30.695L227.074,30.435L227.011,30.176L226.948,29.918L226.883,29.66L226.818,29.403L226.751,29.146L226.683,28.889L226.615,28.633L226.545,28.378L226.474,28.123L226.402,27.868L226.329,27.614L226.255,27.361L226.179,27.108L226.103,26.855L226.026,26.603L225.947,26.352L225.868,26.1L225.787,25.85L225.706,25.6L225.623,25.35L225.54,25.101L225.455,24.852L225.369,24.603L225.282,24.355L225.195,24.108L225.106,23.861L225.016,23.615L224.925,23.369L224.833,23.123L224.741,22.878L224.647,22.633L224.552,22.389L224.456,22.145L224.359,21.901L224.261,21.659L224.162,21.416L224.062,21.174L223.961,20.932L223.86,20.691L223.757,20.45L223.653,20.21L223.548,19.97L223.442,19.73L223.335,19.491L223.228,19.253L223.119,19.014L223.009,18.777L222.898,18.539L222.787,18.302L222.674,18.066L222.561,17.829L222.449,17.592L222.336,17.356L222.222,17.119L222.107,16.883L221.991,16.648L221.874,16.412L221.756,16.178L221.637,15.943L221.518,15.709L221.397,15.475L221.275,15.242L221.153,15.009L221.029,14.777L220.905,14.544L220.78,14.313L220.654,14.081L220.527,13.85L220.399,13.62L220.27,13.389L220.14,13.159L220.009,12.93L219.877,12.701L219.745,12.472L219.612,12.243L219.477,12.015L219.342,11.788L219.206,11.56L219.069,11.333L218.931,11.107L218.793,10.88L218.653,10.654L218.513,10.429L218.372,10.204L218.23,9.979L218.087,9.754L217.943,9.53L217.798,9.306L217.653,9.083L217.507,8.86L217.359,8.637L217.211,8.415L217.063,8.193L216.913,7.971L216.763,7.75L216.611,7.529L216.459,7.308L216.307,7.088L216.153,6.868L215.998,6.648L215.843,6.429L215.687,6.21L215.53,5.991L215.373,5.773L215.214,5.555L215.055,5.337L214.895,5.12L214.735,4.903L214.573,4.686L214.411,4.47L214.248,4.254L214.084,4.038L213.92,3.823L213.755,3.608L213.589,3.393L213.422,3.179L213.255,2.965L213.087,2.751L212.918,2.538L212.578,2.112L212.235,1.687L211.89,1.264L211.542,0.842L211.191,0.421L210.838,0L211.26,0.352Z" style="fill:rgb(68,68,68);"/>
        <path d="M292.785,58.127L292.806,58.143L293.083,58.361L293.38,58.596L293.97,59.072L294.262,59.313L294.554,59.555L294.843,59.798L295.132,60.044L295.419,60.291L295.704,60.539L295.988,60.789L296.271,61.041L296.552,61.295L296.831,61.551L297.109,61.808L297.386,62.067L297.66,62.328L297.933,62.591L298.205,62.856L298.475,63.123L298.743,63.392L299.009,63.662L299.274,63.935L299.537,64.21L299.799,64.486L300.058,64.765L300.316,65.046L300.572,65.329L300.826,65.614L301.078,65.901L301.329,66.191L301.577,66.483L301.824,66.776L302.068,67.073L302.311,67.371L302.552,67.672L302.791,67.975L303.027,68.28L303.262,68.588L303.272,68.601L303.49,68.9L303.716,69.216L303.939,69.533L304.16,69.853L304.378,70.173L304.488,70.337L304.704,70.663L304.811,70.827L305.023,71.157L305.128,71.322L305.233,71.489L305.337,71.656L305.44,71.823L305.543,71.992L305.646,72.16L305.747,72.33L305.849,72.5L306.049,72.842L306.148,73.014L306.247,73.187L306.345,73.36L306.442,73.534L306.539,73.709L306.635,73.884L306.731,74.06L306.826,74.236L306.92,74.413L307.014,74.591L307.107,74.77L307.199,74.949L307.291,75.129L307.382,75.309L307.472,75.49L307.562,75.672L307.74,76.038L307.914,76.406L308.001,76.592L308.086,76.777L308.256,77.151L308.339,77.339L308.422,77.528L308.504,77.717L308.586,77.907L308.667,78.098L308.747,78.289L308.826,78.481L308.905,78.674L308.983,78.868L309.06,79.062L309.137,79.257L309.212,79.452L309.287,79.648L309.362,79.845L309.508,80.241L309.58,80.44L309.651,80.64L309.722,80.841L309.792,81.042L309.861,81.244L309.997,81.65L310.063,81.854L310.195,82.264L310.259,82.47L310.323,82.677L310.385,82.885L310.448,83.093L310.509,83.303L310.569,83.512L310.629,83.723L310.688,83.934L310.746,84.146L310.86,84.572L310.97,85.002L311.024,85.217L311.13,85.651L311.181,85.868L311.232,86.087L311.282,86.306L311.331,86.526L311.37,86.707L311.378,86.747L311.422,86.969L311.506,87.415L311.547,87.639L311.587,87.864L311.626,88.09L311.664,88.316L311.738,88.77L311.808,89.228L311.842,89.457L311.875,89.688L311.907,89.919L311.938,90.151L311.968,90.383L312.026,90.851L312.08,91.321L312.106,91.557L312.131,91.794L312.177,92.27L312.199,92.509L312.221,92.749L312.241,92.989L312.26,93.231L312.296,93.715L312.328,94.203L312.343,94.448L312.356,94.693L312.369,94.94L312.381,95.187L312.392,95.434L312.41,95.932L312.418,96.182L312.432,96.684L312.437,96.937L312.441,97.19L312.444,97.443L312.445,97.544L312.444,97.697L312.441,97.952L312.437,98.208L312.432,98.464L312.426,98.721L312.419,98.978L312.411,99.237L312.402,99.496L312.393,99.756L312.382,100.016L312.37,100.277L312.357,100.539L312.343,100.802L312.328,101.065L312.312,101.329L312.296,101.594L312.278,101.859L312.259,102.126L312.239,102.393L312.218,102.66L312.196,102.929L312.173,103.198L312.149,103.468L312.124,103.738L312.098,104.01L312.071,104.282L312.043,104.554L312.014,104.828L311.984,105.102L311.953,105.377L311.921,105.653L311.888,105.929L311.853,106.206L311.82,106.475L311.853,106.288L311.833,106.51L311.808,106.749L311.781,106.987L311.753,107.225L311.724,107.462L311.693,107.698L311.66,107.933L311.626,108.168L311.592,108.397L311.591,108.403L311.55,108.635L311.507,108.867L311.463,109.098L311.417,109.328L311.37,109.558L311.322,109.787L311.272,110.015L311.221,110.242L311.169,110.469L311.115,110.694L311.06,110.919L311.004,111.144L310.946,111.367L310.887,111.59L310.827,111.812L310.766,112.033L310.703,112.253L310.639,112.473L310.574,112.692L310.508,112.91L310.441,113.127L310.372,113.343L310.302,113.559L310.231,113.774L310.159,113.988L310.086,114.201L310.011,114.414L309.936,114.626L309.859,114.836L309.782,115.047L309.703,115.256L309.623,115.464L309.542,115.672L309.46,115.879L309.377,116.085L309.293,116.29L309.209,116.495L309.123,116.699L309.036,116.901L308.948,117.104L308.859,117.305L308.769,117.505L308.679,117.705L308.587,117.904L308.495,118.102L308.401,118.3L308.307,118.496L308.212,118.692L308.116,118.887L308.02,119.081L307.922,119.274L307.83,119.454L307.823,119.467L307.719,119.656L307.614,119.844L307.508,120.031L307.402,120.217L307.295,120.403L307.187,120.588L307.079,120.772L306.969,120.955L306.859,121.137L306.749,121.319L306.638,121.499L306.526,121.679L306.414,121.858L306.301,122.037L306.187,122.214L306.073,122.391L305.958,122.567L305.843,122.742L305.727,122.916L305.61,123.09L305.49,123.268L305.258,123.606L305.021,123.946L304.781,124.284L304.54,124.618L304.298,124.95L304.053,125.278L303.807,125.604L303.56,125.926L303.312,126.246L303.062,126.563L302.81,126.878L302.558,127.19L302.305,127.499L302.051,127.805L301.796,128.109L301.697,128.225L301.534,128.405L301.269,128.695L301.003,128.983L300.736,129.268L300.469,129.55L300.202,129.83L299.935,130.108L299.667,130.383L299.4,130.656L299.132,130.927L298.864,131.195L298.597,131.461L298.33,131.724L298.073,131.976L298.063,131.985L297.791,132.239L297.519,132.49L297.248,132.739L296.978,132.986L296.708,133.231L296.439,133.474L296.171,133.715L295.902,133.955L295.374,134.425L294.847,134.889L294.326,135.346L293.986,135.643L293.806,135.792L293.286,136.223L292.266,137.066L291.768,137.478L291.278,137.884L290.797,138.283L290.327,138.677L289.863,139.068L289.639,139.258L289.416,139.448L289.195,139.638L288.977,139.825L288.762,140.012L288.55,140.197L288.342,140.381L288.136,140.563L287.934,140.744L287.735,140.923L287.539,141.101L287.347,141.278L287.158,141.453L286.973,141.627L286.792,141.8L286.614,141.971L286.44,142.14L286.27,142.308L286.104,142.475L285.941,142.639L285.801,142.784L285.782,142.802L285.623,142.96L285.469,143.117L285.318,143.272L285.171,143.425L285.025,143.582L284.778,143.857L284.532,144.135L284.29,144.412L284.051,144.689L283.816,144.964L283.585,145.238L283.359,145.512L283.135,145.785L282.916,146.056L282.701,146.327L282.49,146.597L282.282,146.867L282.076,147.139L281.978,147.269L281.879,147.403L281.78,147.537L281.683,147.67L281.586,147.803L281.49,147.936L281.396,148.069L281.302,148.202L281.209,148.335L281.118,148.467L281.027,148.6L280.937,148.732L280.848,148.864L280.76,148.996L280.673,149.128L280.587,149.26L280.501,149.391L280.417,149.523L280.334,149.654L280.251,149.786L280.17,149.917L280.089,150.048L280.01,150.179L279.931,150.31L279.853,150.441L279.776,150.572L279.7,150.702L279.625,150.833L279.551,150.964L279.478,151.094L279.406,151.225L279.347,151.332L279.334,151.355L279.261,151.485L279.19,151.614L279.119,151.744L279.049,151.873L278.979,152.003L278.911,152.132L278.844,152.262L278.777,152.392L278.712,152.522L278.647,152.651L278.583,152.781L278.52,152.911L278.458,153.041L278.397,153.171L278.336,153.301L278.277,153.432L278.218,153.562L278.161,153.693L278.104,153.823L278.048,153.954L277.993,154.085L277.939,154.216L277.885,154.347L277.833,154.479L277.781,154.61L277.73,154.742L277.681,154.874L277.631,155.006L277.583,155.138L277.536,155.271L277.49,155.404L277.444,155.537L277.399,155.67L277.355,155.803L277.312,155.937L277.27,156.071L277.229,156.206L277.188,156.34L277.149,156.475L277.11,156.61L277.072,156.746L277.035,156.882L276.999,157.018L276.964,157.154L276.93,157.291L276.896,157.428L276.863,157.566L276.832,157.704L276.801,157.842L276.771,157.981L276.742,158.12L276.713,158.26L276.686,158.399L276.659,158.54L276.634,158.681L276.609,158.822L276.585,158.964L276.562,159.106L276.54,159.248L276.519,159.391L276.498,159.535L276.479,159.679L276.461,159.824L276.443,159.969L276.426,160.114L276.41,160.261L276.396,160.407L276.382,160.554L276.369,160.702L276.357,160.85L276.345,160.999L276.344,161.012L276.333,161.149L276.321,161.299L276.311,161.45L276.301,161.601L276.292,161.753L276.284,161.906L276.277,162.059L276.271,162.213L276.266,162.367L276.262,162.522L276.259,162.678L276.256,162.835L276.255,162.992L276.255,163.15L276.256,163.308L276.258,163.467L276.26,163.627L276.264,163.788L276.269,163.949L276.275,164.111L276.281,164.274L276.289,164.437L276.298,164.601L276.308,164.766L276.318,164.932L276.33,165.098L276.343,165.265L276.357,165.433L276.372,165.602L276.388,165.771L276.405,165.941L276.423,166.112L276.442,166.283L276.462,166.456L276.483,166.629L276.506,166.802L276.529,166.977L276.553,167.152L276.605,167.506L276.633,167.683L276.661,167.862L276.691,168.041L276.722,168.221L276.754,168.402L276.787,168.584L276.821,168.766L276.856,168.949L276.893,169.133L276.93,169.318L277.008,169.69L277.049,169.878L277.091,170.066L277.134,170.255L277.178,170.444L277.223,170.635L277.269,170.826L277.365,171.212L277.415,171.405L277.466,171.6L277.518,171.796L277.571,171.992L277.625,172.189L277.681,172.387L277.737,172.586L277.795,172.786L277.854,172.986L277.913,173.188L277.975,173.39L278.037,173.593L278.1,173.797L278.23,174.207L278.297,174.414L278.365,174.621L278.434,174.829L278.576,175.249L278.649,175.459L278.723,175.671L278.798,175.884L278.874,176.097L278.951,176.311L279.029,176.527L279.109,176.743L279.19,176.96L279.272,177.177L279.355,177.396L279.439,177.616L279.525,177.836L279.611,178.058L279.699,178.28L279.788,178.503L279.947,178.896L279.969,178.953L280.15,179.408L280.336,179.867L280.527,180.33L280.723,180.797L280.923,181.267L281.128,181.741L281.337,182.219L281.552,182.701L281.771,183.187L281.995,183.676L282.223,184.17L282.456,184.667L282.695,185.168L282.937,185.674L283.008,185.819L283.183,186.184L282.921,185.876L282.816,185.752L282.457,185.32L282.103,184.891L281.754,184.464L281.41,184.038L281.072,183.615L280.738,183.194L280.41,182.775L280.086,182.358L279.768,181.942L279.455,181.529L279.146,181.117L278.843,180.707L278.545,180.298L278.251,179.892L278.215,179.841L277.967,179.485L277.827,179.281L277.688,179.078L277.551,178.876L277.415,178.674L277.28,178.472L277.146,178.271L277.013,178.07L276.882,177.87L276.752,177.67L276.623,177.47L276.495,177.271L276.369,177.072L276.243,176.873L276.119,176.675L275.996,176.477L275.875,176.279L275.754,176.082L275.635,175.885L275.517,175.688L275.4,175.491L275.284,175.295L275.17,175.1L275.056,174.904L274.944,174.709L274.834,174.514L274.724,174.319L274.615,174.125L274.508,173.931L274.402,173.737L274.297,173.543L274.193,173.35L274.091,173.156L273.989,172.964L273.889,172.771L273.79,172.578L273.693,172.386L273.596,172.194L273.501,172.002L273.406,171.811L273.313,171.619L273.221,171.428L273.131,171.237L273.041,171.046L272.953,170.855L272.866,170.665L272.78,170.474L272.695,170.284L272.612,170.094L272.529,169.904L272.448,169.714L272.368,169.525L272.289,169.335L272.212,169.146L272.135,168.956L272.06,168.767L271.986,168.578L271.913,168.389L271.842,168.2L271.771,168.011L271.702,167.823L271.634,167.634L271.567,167.446L271.501,167.257L271.436,167.069L271.373,166.881L271.311,166.692L271.25,166.504L271.19,166.316L271.132,166.128L271.074,165.94L271.018,165.752L270.963,165.564L270.91,165.376L270.857,165.189L270.806,165.001L270.756,164.813L270.707,164.625L270.659,164.438L270.613,164.25L270.567,164.062L270.523,163.875L270.48,163.687L270.439,163.499L270.398,163.312L270.359,163.124L270.321,162.936L270.284,162.749L270.249,162.561L270.215,162.373L270.181,162.186L270.15,161.998L270.119,161.81L270.09,161.623L270.061,161.435L270.037,161.263L270.011,161.06L269.989,160.872L269.968,160.684L269.949,160.496L269.93,160.309L269.913,160.121L269.897,159.933L269.882,159.746L269.869,159.558L269.857,159.37L269.846,159.183L269.836,158.995L269.827,158.807L269.82,158.62L269.814,158.432L269.809,158.245L269.805,158.057L269.803,157.87L269.802,157.682L269.802,157.495L269.803,157.307L269.806,157.12L269.81,156.933L269.815,156.745L269.821,156.558L269.828,156.371L269.837,156.183L269.847,155.996L269.858,155.809L269.871,155.622L269.884,155.435L269.899,155.248L269.915,155.06L269.932,154.873L269.951,154.686L269.97,154.499L269.991,154.313L270.013,154.126L270.036,153.939L270.061,153.752L270.087,153.565L270.113,153.379L270.141,153.192L270.171,153.005L270.201,152.819L270.233,152.632L270.265,152.446L270.299,152.259L270.334,152.073L270.371,151.887L270.408,151.7L270.447,151.514L270.486,151.328L270.527,151.142L270.569,150.956L270.613,150.77L270.657,150.584L270.702,150.398L270.749,150.212L270.797,150.026L270.845,149.841L270.895,149.655L270.947,149.469L270.999,149.284L271.052,149.098L271.106,148.913L271.162,148.727L271.218,148.542L271.276,148.357L271.335,148.171L271.395,147.986L271.405,147.953L271.457,147.802L271.522,147.617L271.587,147.433L271.653,147.249L271.721,147.065L271.789,146.881L271.859,146.698L271.929,146.514L272.001,146.33L272.074,146.146L272.147,145.963L272.222,145.779L272.297,145.596L272.374,145.412L272.452,145.229L272.53,145.045L272.61,144.862L272.691,144.678L272.772,144.495L272.855,144.312L272.939,144.128L273.023,143.945L273.109,143.762L273.195,143.579L273.283,143.395L273.371,143.212L273.461,143.029L273.551,142.846L273.642,142.662L273.735,142.479L273.828,142.296L273.925,142.108L274.113,141.746L274.308,141.379L274.506,141.012L274.708,140.645L274.914,140.277L275.123,139.91L275.336,139.542L275.552,139.173L275.772,138.805L275.995,138.436L276.222,138.066L276.452,137.696L276.69,137.321L276.859,137.06L277.036,136.797L277.215,136.534L277.396,136.273L277.58,136.014L277.601,135.984L277.77,135.759L277.962,135.506L278.157,135.254L278.354,135.003L278.553,134.753L278.753,134.504L278.956,134.257L279.16,134.01L279.366,133.763L279.573,133.518L279.782,133.273L279.993,133.029L280.205,132.786L280.418,132.543L280.633,132.3L280.849,132.058L281.066,131.817L281.284,131.575L281.503,131.334L281.723,131.094L281.947,130.851L282.388,130.373L282.836,129.892L283.286,129.412L283.738,128.932L284.191,128.451L285.1,127.487L285.555,127.004L285.71,126.839L286.016,126.528L286.481,126.054L286.944,125.579L287.407,125.099L287.635,124.862L287.863,124.623L288.092,124.383L288.319,124.142L288.546,123.901L288.771,123.66L288.996,123.418L289.22,123.175L289.228,123.166L289.448,122.938L289.675,122.7L289.902,122.461L290.127,122.222L290.35,121.982L290.573,121.742L290.794,121.5L291.013,121.258L291.231,121.016L291.448,120.773L291.663,120.529L291.876,120.284L292.087,120.039L292.216,119.888L292.301,119.795L292.518,119.557L292.733,119.317L292.947,119.076L293.159,118.835L293.369,118.592L293.577,118.349L293.783,118.105L293.987,117.859L294.188,117.613L294.388,117.366L294.585,117.118L294.781,116.868L294.974,116.618L295.164,116.367L295.356,116.109L295.446,115.988L295.538,115.861L295.631,115.734L295.722,115.606L295.813,115.478L295.903,115.35L295.992,115.222L296.081,115.093L296.17,114.965L296.257,114.835L296.344,114.706L296.43,114.576L296.516,114.446L296.601,114.316L296.685,114.185L296.769,114.054L296.852,113.923L296.934,113.791L297.016,113.659L297.097,113.527L297.177,113.394L297.183,113.385L297.262,113.264L297.345,113.133L297.429,113.003L297.511,112.871L297.593,112.74L297.675,112.608L297.755,112.475L297.835,112.342L297.914,112.209L297.993,112.075L298.07,111.941L298.148,111.807L298.224,111.672L298.3,111.536L298.374,111.4L298.449,111.264L298.522,111.127L298.595,110.99L298.667,110.852L298.738,110.714L298.809,110.575L298.879,110.436L298.948,110.296L299.016,110.156L299.084,110.015L299.15,109.874L299.217,109.732L299.282,109.59L299.346,109.447L299.41,109.303L299.473,109.159L299.535,109.015L299.597,108.87L299.657,108.724L299.717,108.578L299.776,108.431L299.834,108.284L299.892,108.135L299.948,107.987L300.004,107.837L300.059,107.688L300.113,107.537L300.166,107.386L300.219,107.234L300.27,107.081L300.321,106.928L300.371,106.774L300.42,106.619L300.468,106.464L300.515,106.308L300.561,106.151L300.607,105.994L300.608,105.99L300.656,105.836L300.704,105.678L300.752,105.519L300.798,105.36L300.844,105.199L300.888,105.038L300.932,104.875L300.975,104.712L301.035,104.437L301.122,104.1L301.187,103.867L301.251,103.634L301.314,103.401L301.376,103.17L301.437,102.939L301.497,102.709L301.556,102.479L301.614,102.25L301.671,102.021L301.727,101.793L301.782,101.566L301.836,101.34L301.889,101.114L301.941,100.888L301.992,100.663L302.042,100.439L302.091,100.216L302.139,99.993L302.186,99.771L302.233,99.549L302.278,99.328L302.322,99.107L302.365,98.887L302.408,98.668L302.449,98.449L302.489,98.231L302.529,98.013L302.567,97.796L302.605,97.58L302.642,97.364L302.677,97.149L302.712,96.934L302.733,96.805L302.748,96.72L302.785,96.507L302.821,96.294L302.856,96.082L302.89,95.871L302.924,95.659L302.956,95.449L302.988,95.239L303.018,95.029L303.048,94.82L303.077,94.612L303.105,94.404L303.132,94.196L303.158,93.989L303.183,93.783L303.207,93.577L303.23,93.371L303.253,93.166L303.274,92.962L303.295,92.758L303.315,92.554L303.334,92.351L303.352,92.149L303.369,91.947L303.385,91.745L303.401,91.544L303.415,91.343L303.429,91.143L303.442,90.943L303.453,90.744L303.465,90.545L303.475,90.347L303.484,90.149L303.493,89.952L303.5,89.755L303.507,89.559L303.513,89.363L303.518,89.167L303.522,88.972L303.526,88.777L303.528,88.583L303.53,88.389L303.531,88.196L303.531,88.003L303.53,87.81L303.528,87.618L303.528,87.583L303.529,87.426L303.53,87.234L303.53,87.043L303.529,86.852L303.527,86.661L303.524,86.471L303.52,86.281L303.516,86.092L303.511,85.903L303.505,85.714L303.498,85.525L303.491,85.337L303.482,85.15L303.473,84.962L303.463,84.776L303.452,84.589L303.44,84.403L303.428,84.217L303.414,84.031L303.4,83.846L303.385,83.661L303.37,83.477L303.353,83.293L303.336,83.109L303.318,82.925L303.299,82.742L303.279,82.559L303.259,82.377L303.237,82.194L303.215,82.013L303.192,81.831L303.169,81.65L303.144,81.469L303.119,81.288L303.093,81.108L303.066,80.928L303.039,80.748L303.011,80.569L302.982,80.39L302.952,80.211L302.921,80.033L302.89,79.854L302.858,79.677L302.825,79.499L302.791,79.322L302.757,79.145L302.721,78.968L302.685,78.792L302.649,78.615L302.611,78.44L302.573,78.264L302.534,78.089L302.494,77.914L302.454,77.739L302.413,77.565L302.371,77.39L302.328,77.217L302.284,77.043L302.24,76.87L302.195,76.696L302.15,76.524L302.103,76.351L302.056,76.179L302.008,76.007L301.959,75.835L301.91,75.664L301.86,75.492L301.809,75.321L301.758,75.151L301.705,74.98L301.652,74.81L301.599,74.64L301.544,74.47L301.489,74.301L301.433,74.132L301.376,73.963L301.319,73.794L301.261,73.626L301.202,73.457L301.143,73.289L301.083,73.122L301.022,72.954L300.96,72.787L300.898,72.62L300.835,72.453L300.771,72.287L300.708,72.122L300.576,71.789L300.443,71.458L300.306,71.128L300.167,70.799L300.031,70.485L300.026,70.471L299.886,70.141L299.743,69.812L299.598,69.483L299.45,69.156L299.3,68.829L299.147,68.503L298.991,68.178L298.832,67.854L298.671,67.531L298.507,67.208L298.341,66.887L298.172,66.566L298.001,66.246L297.827,65.926L297.65,65.608L297.471,65.29L297.29,64.973L297.106,64.657L296.919,64.342L296.731,64.027L296.54,63.713L296.346,63.4L296.15,63.088L295.952,62.777L295.752,62.466L295.549,62.156L295.344,61.847L295.137,61.538L294.927,61.231L294.715,60.924L294.502,60.618L294.286,60.312L294.068,60.008L293.847,59.704L293.625,59.401L293.401,59.098L293.174,58.796L292.946,58.495L292.732,58.216L292.716,58.195L292.484,57.895L292.785,58.127Z" style="fill:rgb(68,68,68);"/>
    </g>
</svg>
