<?xml version="1.0" encoding="UTF-8" standalone="no"?><!DOCTYPE svg PUBLIC "-//W3C//DTD SVG 1.1//EN" "http://www.w3.org/Graphics/SVG/1.1/DTD/svg11.dtd"><svg width="100%" height="100%" viewBox="0 0 400 100" version="1.1" xmlns="http://www.w3.org/2000/svg" xmlns:xlink="http://www.w3.org/1999/xlink" xml:space="preserve" xmlns:serif="http://www.serif.com/" style="fill-rule:evenodd;clip-rule:evenodd;stroke-linejoin:round;stroke-miterlimit:1.41421;"><g id="Logo"><g id="Logo1" serif:id="Logo"><path d="M108,5.387l-108,0l54,89.226l54,-89.226Zm-10.565,5.62l-43.435,71.769l-43.435,-71.769l86.87,0Z" style="fill:#393939;"/><path d="M54,63.104l27,-44.613l-54,0l27,44.613Z" style="fill:#ffb500;"/></g><path d="M152.896,85.856c-4.928,0 -9.616,-0.848 -14.064,-2.544c-4.448,-1.696 -7.92,-3.888 -10.416,-6.576l2.208,-3.648c2.368,2.496 5.552,4.528 9.552,6.096c4,1.568 8.208,2.352 12.624,2.352c6.4,0 11.232,-1.216 14.496,-3.648c3.264,-2.432 4.896,-5.6 4.896,-9.504c0,-3.008 -0.864,-5.408 -2.592,-7.2c-1.728,-1.792 -3.872,-3.168 -6.432,-4.128c-2.56,-0.96 -6.016,-1.952 -10.368,-2.976c-4.928,-1.216 -8.88,-2.4 -11.856,-3.552c-2.976,-1.152 -5.504,-2.928 -7.584,-5.328c-2.08,-2.4 -3.12,-5.616 -3.12,-9.648c0,-3.264 0.864,-6.256 2.592,-8.976c1.728,-2.72 4.368,-4.88 7.92,-6.48c3.552,-1.6 7.984,-2.4 13.296,-2.4c3.712,0 7.36,0.544 10.944,1.632c3.584,1.088 6.688,2.56 9.312,4.416l-1.824,3.936c-2.688,-1.856 -5.648,-3.264 -8.88,-4.224c-3.232,-0.96 -6.416,-1.44 -9.552,-1.44c-6.208,0 -10.912,1.248 -14.112,3.744c-3.2,2.496 -4.8,5.728 -4.8,9.696c0,3.008 0.864,5.408 2.592,7.2c1.728,1.792 3.872,3.168 6.432,4.128c2.56,0.96 6.048,1.984 10.464,3.072c4.928,1.216 8.864,2.4 11.808,3.552c2.944,1.152 5.456,2.896 7.536,5.232c2.08,2.336 3.12,5.488 3.12,9.456c0,3.264 -0.88,6.24 -2.64,8.928c-1.76,2.688 -4.464,4.832 -8.112,6.432c-3.648,1.6 -8.128,2.4 -13.44,2.4Z" style="fill-rule:nonzero;"/><path d="M212.032,85.76c-4.864,0 -9.216,-1.088 -13.056,-3.264c-3.84,-2.176 -6.848,-5.2 -9.024,-9.072c-2.176,-3.872 -3.264,-8.24 -3.264,-13.104c0,-4.928 1.088,-9.328 3.264,-13.2c2.176,-3.872 5.184,-6.88 9.024,-9.024c3.84,-2.144 8.192,-3.216 13.056,-3.216c4.032,0 7.696,0.784 10.992,2.352c3.296,1.568 5.968,3.856 8.016,6.864l-3.552,2.592c-1.792,-2.496 -4.016,-4.368 -6.672,-5.616c-2.656,-1.248 -5.584,-1.872 -8.784,-1.872c-3.904,0 -7.408,0.88 -10.512,2.64c-3.104,1.76 -5.536,4.24 -7.296,7.44c-1.76,3.2 -2.64,6.88 -2.64,11.04c0,4.16 0.88,7.84 2.64,11.04c1.76,3.2 4.192,5.68 7.296,7.44c3.104,1.76 6.608,2.64 10.512,2.64c3.2,0 6.128,-0.624 8.784,-1.872c2.656,-1.248 4.88,-3.12 6.672,-5.616l3.552,2.592c-2.048,3.008 -4.72,5.296 -8.016,6.864c-3.296,1.568 -6.96,2.352 -10.992,2.352Z" style="fill-rule:nonzero;"/><path d="M269.056,34.88c6.272,0 11.232,1.824 14.88,5.472c3.648,3.648 5.472,8.896 5.472,15.744l0,29.28l-4.8,0l0,-28.896c0,-5.632 -1.424,-9.92 -4.272,-12.864c-2.848,-2.944 -6.832,-4.416 -11.952,-4.416c-5.888,0 -10.528,1.76 -13.92,5.28c-3.392,3.52 -5.088,8.256 -5.088,14.208l0,26.688l-4.8,0l0,-71.232l4.8,0l0,31.584c1.728,-3.456 4.288,-6.128 7.68,-8.016c3.392,-1.888 7.392,-2.832 12,-2.832Z" style="fill-rule:nonzero;"/><path d="M351.616,61.472l-43.104,0c0.128,3.904 1.12,7.376 2.976,10.416c1.856,3.04 4.368,5.392 7.536,7.056c3.168,1.664 6.736,2.496 10.704,2.496c3.264,0 6.288,-0.592 9.072,-1.776c2.784,-1.184 5.104,-2.928 6.96,-5.232l2.784,3.168c-2.176,2.624 -4.912,4.64 -8.208,6.048c-3.296,1.408 -6.864,2.112 -10.704,2.112c-4.992,0 -9.44,-1.088 -13.344,-3.264c-3.904,-2.176 -6.96,-5.184 -9.168,-9.024c-2.208,-3.84 -3.312,-8.224 -3.312,-13.152c0,-4.864 1.04,-9.232 3.12,-13.104c2.08,-3.872 4.944,-6.896 8.592,-9.072c3.648,-2.176 7.744,-3.264 12.288,-3.264c4.544,0 8.624,1.072 12.24,3.216c3.616,2.144 6.464,5.136 8.544,8.976c2.08,3.84 3.12,8.192 3.12,13.056l-0.096,1.344Zm-23.808,-22.368c-3.52,0 -6.688,0.784 -9.504,2.352c-2.816,1.568 -5.072,3.776 -6.768,6.624c-1.696,2.848 -2.672,6.064 -2.928,9.648l38.4,0c-0.192,-3.584 -1.152,-6.784 -2.88,-9.6c-1.728,-2.816 -4,-5.024 -6.816,-6.624c-2.816,-1.6 -5.984,-2.4 -9.504,-2.4Z" style="fill-rule:nonzero;"/><path d="M400,81.248l0,4.128l-39.84,0l0,-3.264l33.024,-42.72l-32.544,0l0,-4.128l38.784,0l0,3.264l-33.12,42.72l33.696,0Z" style="fill-rule:nonzero;"/></g></svg>