<?xml version="1.0" encoding="UTF-8" standalone="no"?><!DOCTYPE svg PUBLIC "-//W3C//DTD SVG 1.1//EN" "http://www.w3.org/Graphics/SVG/1.1/DTD/svg11.dtd"><svg width="100%" height="100%" viewBox="0 0 400 400" version="1.1" xmlns="http://www.w3.org/2000/svg" xmlns:xlink="http://www.w3.org/1999/xlink" xml:space="preserve" xmlns:serif="http://www.serif.com/" style="fill-rule:evenodd;clip-rule:evenodd;stroke-linejoin:round;stroke-miterlimit:1.41421;"><g id="Plate"><path d="M131.579,253.947c-14.31,-17.124 -54.459,-24.425 -131.579,-30.463l0,-20.852l400,0l0,20.852c-77.12,6.038 -117.269,13.339 -131.579,30.463l-136.842,0Z" style="fill:#444;"/><path d="M120.796,0.352l0.029,0.024l0.39,0.33l0.416,0.357l0.415,0.359l0.412,0.361l0.411,0.363l0.204,0.182l0.204,0.183l0.203,0.183l0.203,0.184l0.202,0.184l0.201,0.185l0.201,0.186l0.2,0.186l0.2,0.187l0.199,0.187l0.199,0.188l0.198,0.188l0.197,0.189l0.197,0.189l0.197,0.19l0.195,0.191l0.195,0.191l0.195,0.192l0.193,0.193l0.194,0.193l0.192,0.193l0.192,0.194l0.192,0.195l0.19,0.196l0.191,0.196l0.189,0.197l0.189,0.197l0.188,0.198l0.188,0.198l0.187,0.2l0.186,0.2l0.185,0.2l0.185,0.201l0.185,0.202l0.183,0.203l0.183,0.203l0.183,0.204l0.181,0.204l0.181,0.205l0.18,0.206l0.18,0.206l0.179,0.208l0.178,0.208l0.178,0.208l0.176,0.209l0.177,0.21l0.175,0.211l0.175,0.211l0.174,0.212l0.173,0.213l0.172,0.213l0.172,0.215l0.171,0.215l0.171,0.215l0.169,0.217l0.169,0.217l0.168,0.218l0.168,0.218l0.166,0.219l0.166,0.22l0.165,0.221l0.165,0.222l0.163,0.222l0.163,0.223l0.162,0.224l0.161,0.225l0.161,0.225l0.159,0.226l0.006,0.008l0.151,0.221l0.156,0.229l0.154,0.23l0.154,0.23l0.154,0.232l0.152,0.232l0.152,0.233l0.15,0.233l0.15,0.235l0.149,0.235l0.148,0.236l0.148,0.237l0.146,0.238l0.146,0.239l0.145,0.239l0.144,0.24l0.143,0.241l0.142,0.242l0.141,0.242l0.14,0.244l0.14,0.244l0.138,0.245l0.138,0.246l0.137,0.247l0.136,0.247l0.135,0.248l0.134,0.25l0.133,0.25l0.132,0.251l0.132,0.251l0.13,0.253l0.129,0.254l0.129,0.254l0.127,0.255l0.127,0.256l0.126,0.257l0.124,0.258l0.124,0.258l0.123,0.26l0.121,0.26l0.121,0.262l0.12,0.262l0.119,0.263l0.118,0.264l0.116,0.265l0.116,0.265l0.115,0.267l0.114,0.268l0.113,0.268l0.111,0.269l0.111,0.271l0.11,0.271l0.109,0.272l0.107,0.273l0.107,0.274l0.105,0.274l0.105,0.276l0.103,0.277l0.103,0.277l0.101,0.279l0.1,0.279l0.099,0.28l0.099,0.282l0.097,0.282l0.095,0.283l0.095,0.284l0.094,0.285l0.093,0.286l0.091,0.287l0.091,0.288l0.089,0.289l0.088,0.289l0.087,0.291l0.086,0.292l0.085,0.292l0.084,0.294l0.082,0.294l0.082,0.296l0.08,0.296l0.079,0.298l0.078,0.298l0.077,0.299l0.075,0.3l0.075,0.302l0.073,0.302l0.072,0.303l0.071,0.304l0.07,0.305l0.068,0.307l0.067,0.307l0.066,0.308l0.065,0.309l0.064,0.31l0.063,0.311l0.061,0.312l0.06,0.313l0.048,0.255l0.01,0.059l0.054,0.316l0.052,0.316l0.051,0.317l0.05,0.319l0.049,0.319l0.047,0.32l0.047,0.321l0.044,0.322l0.044,0.324l0.042,0.324l0.041,0.325l0.04,0.326l0.039,0.327l0.037,0.328l0.036,0.329l0.034,0.33l0.034,0.331l0.032,0.332l0.03,0.333l0.03,0.334l0.028,0.335l0.027,0.336l0.025,0.337l0.024,0.337l0.023,0.339l0.021,0.34l0.02,0.341l0.019,0.342l0.018,0.343l0.016,0.344l0.014,0.345l0.014,0.345l0.012,0.347l0.01,0.348l0.01,0.349l0.007,0.35l0.007,0.351l0.005,0.352l0.004,0.353l0.002,0.354l0.001,0.355l0,0.356l-0.002,0.357l-0.003,0.358l-0.005,0.359l-0.002,0.152l-0.006,0.208l-0.012,0.361l-0.013,0.362l-0.014,0.362l-0.016,0.364l-0.017,0.365l-0.019,0.366l-0.02,0.367l-0.022,0.367l-0.023,0.369l-0.024,0.37l-0.026,0.371l-0.027,0.372l-0.029,0.372l-0.03,0.374l-0.032,0.375l-0.033,0.376l-0.035,0.377l-0.036,0.378l-0.038,0.379l-0.039,0.38l-0.04,0.381l-0.042,0.382l-0.044,0.383l-0.045,0.384l-0.046,0.386l-0.048,0.386l-0.049,0.387l-0.051,0.388l-0.053,0.39l-0.054,0.39l-0.055,0.392l-0.057,0.392l-0.038,0.291l-0.021,0.219l-0.04,0.33l-0.043,0.328l-0.044,0.328l-0.047,0.327l-0.049,0.325l-0.051,0.325l-0.052,0.324l-0.055,0.323l-0.002,0.012l-0.059,0.308l-0.063,0.32l-0.066,0.318l-0.067,0.318l-0.068,0.316l-0.071,0.315l-0.073,0.315l-0.074,0.313l-0.077,0.312l-0.078,0.311l-0.08,0.31l-0.082,0.308l-0.083,0.308l-0.085,0.307l-0.087,0.305l-0.089,0.305l-0.091,0.303l-0.092,0.302l-0.094,0.301l-0.095,0.3l-0.097,0.299l-0.099,0.298l-0.1,0.297l-0.102,0.296l-0.104,0.294l-0.105,0.294l-0.107,0.292l-0.108,0.291l-0.11,0.291l-0.111,0.289l-0.113,0.288l-0.114,0.287l-0.116,0.285l-0.117,0.285l-0.118,0.284l-0.12,0.282l-0.121,0.282l-0.123,0.28l-0.124,0.28l-0.126,0.278l-0.126,0.277l-0.128,0.276l-0.13,0.275l-0.13,0.274l-0.132,0.273l-0.133,0.272l-0.135,0.27l-0.135,0.27l-0.137,0.269l-0.138,0.267l-0.139,0.267l-0.14,0.265l-0.002,0.005l-0.144,0.257l-0.148,0.26l-0.148,0.259l-0.15,0.258l-0.15,0.258l-0.152,0.256l-0.153,0.255l-0.153,0.254l-0.155,0.252l-0.155,0.252l-0.157,0.251l-0.157,0.25l-0.158,0.248l-0.159,0.248l-0.161,0.246l-0.16,0.246l-0.162,0.244l-0.163,0.244l-0.163,0.242l-0.164,0.242l-0.165,0.24l-0.166,0.239l-0.166,0.239l-0.168,0.237l-0.168,0.237l-0.168,0.235l-0.17,0.235l-0.17,0.233l-0.17,0.233l-0.172,0.231l-0.172,0.231l-0.172,0.229l-0.173,0.229l-0.174,0.228l-0.175,0.227l-0.175,0.226l-0.175,0.225l-0.176,0.224l-0.176,0.223l-0.177,0.222l-0.178,0.222l-0.178,0.22l-0.178,0.22l-0.179,0.218l-0.18,0.218l-0.179,0.217l-0.18,0.216l-0.181,0.215l-0.181,0.215l-0.181,0.213l-0.185,0.216l-0.151,0.176l-0.215,0.239l-0.375,0.411l-0.375,0.407l-0.377,0.405l-0.377,0.401l-0.378,0.398l-0.379,0.395l-0.379,0.392l-0.379,0.388l-0.38,0.386l-0.38,0.382l-0.38,0.38l-0.38,0.377l-0.373,0.367l-0.007,0.006l-0.385,0.366l-0.385,0.362l-0.384,0.36l-0.384,0.357l-0.383,0.354l-0.383,0.352l-0.381,0.349l-0.381,0.347l-0.379,0.344l-0.378,0.342l-0.377,0.339l-0.377,0.338l-0.745,0.666l-0.489,0.435l-0.254,0.219l-0.743,0.637l-1.46,1.25l-0.716,0.613l-0.704,0.606l-0.695,0.6l-0.34,0.295l-0.339,0.295l-0.335,0.293l-0.332,0.291l-0.329,0.289l-0.324,0.288l-0.321,0.287l-0.318,0.284l-0.313,0.283l-0.31,0.282l-0.305,0.279l-0.301,0.279l-0.297,0.276l-0.292,0.275l-0.288,0.274l-0.283,0.272l-0.279,0.27l-0.274,0.269l-0.269,0.267l-0.264,0.266l-0.262,0.268l-0.125,0.128l-0.126,0.131l-0.125,0.13l-0.124,0.131l-0.122,0.13l-0.121,0.129l-0.12,0.129l-0.081,0.089l-0.038,0.039l-0.119,0.126l-0.118,0.126l-0.116,0.126l-0.115,0.125l-0.114,0.125l-0.112,0.124l-0.111,0.124l-0.109,0.123l-0.108,0.124l-0.108,0.125l-0.18,0.211l-0.179,0.212l-0.178,0.213l-0.177,0.212l-0.176,0.212l-0.174,0.211l-0.173,0.211l-0.171,0.211l-0.17,0.211l-0.168,0.21l-0.167,0.21l-0.166,0.209l-0.164,0.21l-0.163,0.208l-0.162,0.209l-0.16,0.209l-0.158,0.208l-0.158,0.207l-0.156,0.208l-0.154,0.207l-0.153,0.207l-0.152,0.207l-0.15,0.207l-0.149,0.206l-0.148,0.206l-0.146,0.206l-0.145,0.205l-0.143,0.205l-0.142,0.206l-0.14,0.204l-0.14,0.205l-0.137,0.205l-0.137,0.204l-0.135,0.204l-0.133,0.204l-0.133,0.204l-0.131,0.203l-0.129,0.204l-0.128,0.203l-0.127,0.203l-0.125,0.203l-0.124,0.203l-0.123,0.203l-0.121,0.202l-0.12,0.202l-0.118,0.203l-0.117,0.202l-0.116,0.202l-0.114,0.202l-0.113,0.202l-0.112,0.202l-0.11,0.202l-0.109,0.201l-0.107,0.202l-0.106,0.202l-0.105,0.201l-0.103,0.202l-0.076,0.15l-0.027,0.051l-0.103,0.2l-0.101,0.201l-0.101,0.2l-0.099,0.201l-0.097,0.2l-0.096,0.201l-0.095,0.201l-0.094,0.201l-0.092,0.2l-0.091,0.201l-0.089,0.201l-0.088,0.201l-0.087,0.202l-0.086,0.201l-0.084,0.201l-0.083,0.202l-0.081,0.202l-0.08,0.202l-0.079,0.202l-0.078,0.202l-0.076,0.202l-0.075,0.203l-0.073,0.203l-0.072,0.203l-0.071,0.203l-0.07,0.204l-0.068,0.203l-0.067,0.204l-0.065,0.205l-0.064,0.204l-0.063,0.205l-0.062,0.205l-0.06,0.205l-0.059,0.206l-0.057,0.206l-0.057,0.207l-0.054,0.206l-0.054,0.207l-0.052,0.208l-0.051,0.208l-0.05,0.208l-0.048,0.209l-0.047,0.209l-0.045,0.209l-0.044,0.21l-0.043,0.21l-0.042,0.211l-0.04,0.211l-0.039,0.212l-0.037,0.212l-0.036,0.213l-0.035,0.213l-0.033,0.214l-0.032,0.214l-0.031,0.215l-0.029,0.216l-0.028,0.215l-0.027,0.217l-0.025,0.217l-0.024,0.218l-0.022,0.218l-0.021,0.219l-0.02,0.219l-0.018,0.22l-0.017,0.221l-0.015,0.221l-0.014,0.222l-0.013,0.223l-0.011,0.223l-0.01,0.225l-0.009,0.224l0,0.011l-0.009,0.215l-0.008,0.226l-0.006,0.227l-0.005,0.228l-0.004,0.228l-0.002,0.23l-0.001,0.23l0.001,0.231l0.002,0.231l0.004,0.233l0.005,0.233l0.007,0.234l0.008,0.235l0.009,0.236l0.011,0.236l0.013,0.238l0.014,0.238l0.015,0.239l0.017,0.24l0.019,0.241l0.02,0.242l0.021,0.243l0.023,0.243l0.025,0.245l0.026,0.245l0.027,0.246l0.029,0.247l0.031,0.248l0.032,0.249l0.034,0.25l0.035,0.251l0.037,0.252l0.039,0.253l0.04,0.253l0.041,0.255l0.043,0.256l0.045,0.256l0.046,0.258l0.048,0.258l0.05,0.26l0.051,0.26l0.053,0.262l0.054,0.262l0.056,0.264l0.057,0.264l0.059,0.266l0.061,0.266l0.062,0.268l0.064,0.268l0.066,0.27l0.067,0.27l0.069,0.272l0.07,0.272l0.072,0.274l0.074,0.275l0.076,0.275l0.077,0.277l0.078,0.278l0.081,0.279l0.082,0.28l0.083,0.281l0.085,0.282l0.087,0.283l0.089,0.284l0.09,0.286l0.092,0.286l0.094,0.288l0.095,0.288l0.097,0.29l0.099,0.291l0.1,0.292l0.102,0.293l0.104,0.294l0.105,0.295l0.107,0.296l0.109,0.298l0.111,0.298l0.112,0.3l0.114,0.301l0.115,0.302l0.117,0.303l0.119,0.304l0.121,0.305l0.122,0.307l0.124,0.308l0.126,0.309l0.128,0.31l0.129,0.311l0.131,0.312l0.133,0.314l0.134,0.314l0.136,0.316l0.138,0.317l0.139,0.318l0.142,0.32l0.143,0.321l0.109,0.243l0.035,0.079l0.144,0.324l0.145,0.326l0.148,0.327l0.149,0.328l0.151,0.329l0.153,0.331l0.154,0.332l0.156,0.333l0.158,0.334l0.16,0.336l0.161,0.336l0.163,0.339l0.165,0.339l0.166,0.341l0.169,0.342l0.17,0.343l0.171,0.344l0.174,0.346l0.175,0.347l0.177,0.349l0.179,0.35l0.18,0.351l0.183,0.352l0.184,0.354l0.185,0.355l0.188,0.356l0.189,0.358l0.191,0.359l0.111,0.207l0.081,0.154l0.193,0.362l-0.254,-0.322l-0.108,-0.137l-0.144,-0.186l-0.249,-0.322l-0.247,-0.321l-0.246,-0.32l-0.244,-0.319l-0.241,-0.318l-0.24,-0.318l-0.238,-0.316l-0.237,-0.316l-0.234,-0.315l-0.233,-0.314l-0.23,-0.313l-0.229,-0.313l-0.227,-0.311l-0.226,-0.311l-0.223,-0.31l-0.222,-0.309l-0.219,-0.309l-0.218,-0.307l-0.217,-0.307l-0.214,-0.306l-0.212,-0.306l-0.211,-0.304l-0.209,-0.304l-0.207,-0.303l-0.206,-0.303l-0.203,-0.301l-0.202,-0.301l-0.2,-0.3l-0.048,-0.073l-0.148,-0.228l-0.194,-0.3l-0.192,-0.299l-0.191,-0.299l-0.188,-0.298l-0.187,-0.297l-0.185,-0.297l-0.184,-0.296l-0.181,-0.295l-0.18,-0.295l-0.178,-0.294l-0.176,-0.293l-0.175,-0.293l-0.173,-0.292l-0.171,-0.291l-0.169,-0.291l-0.167,-0.291l-0.166,-0.289l-0.164,-0.289l-0.162,-0.289l-0.161,-0.287l-0.159,-0.288l-0.157,-0.287l-0.155,-0.286l-0.154,-0.285l-0.152,-0.285l-0.15,-0.285l-0.148,-0.284l-0.147,-0.284l-0.145,-0.283l-0.143,-0.282l-0.141,-0.282l-0.14,-0.282l-0.138,-0.281l-0.137,-0.28l-0.134,-0.28l-0.133,-0.28l-0.131,-0.279l-0.13,-0.279l-0.127,-0.278l-0.126,-0.278l-0.125,-0.278l-0.122,-0.277l-0.121,-0.276l-0.12,-0.276l-0.117,-0.276l-0.116,-0.276l-0.114,-0.275l-0.112,-0.274l-0.111,-0.275l-0.109,-0.274l-0.107,-0.273l-0.106,-0.274l-0.103,-0.273l-0.103,-0.272l-0.1,-0.273l-0.099,-0.271l-0.097,-0.272l-0.095,-0.272l-0.094,-0.271l-0.092,-0.27l-0.09,-0.271l-0.088,-0.27l-0.087,-0.27l-0.085,-0.27l-0.084,-0.269l-0.081,-0.269l-0.08,-0.269l-0.078,-0.269l-0.077,-0.268l-0.075,-0.268l-0.073,-0.268l-0.071,-0.268l-0.07,-0.268l-0.068,-0.267l-0.066,-0.267l-0.065,-0.267l-0.063,-0.267l-0.061,-0.266l-0.059,-0.267l-0.058,-0.266l-0.056,-0.266l-0.055,-0.266l-0.052,-0.265l-0.051,-0.266l-0.049,-0.265l-0.048,-0.266l-0.045,-0.265l-0.044,-0.264l-0.042,-0.265l-0.041,-0.265l-0.039,-0.264l-0.037,-0.265l-0.035,-0.264l-0.034,-0.264l-0.032,-0.264l-0.03,-0.264l-0.026,-0.264l-0.024,-0.263l-0.023,-0.264l-0.021,-0.263l-0.019,-0.263l-0.018,-0.263l-0.016,-0.263l-0.014,-0.263l-0.012,-0.263l-0.011,-0.262l-0.008,-0.263l-0.008,-0.262l-0.005,-0.262l-0.004,-0.262l-0.002,-0.262l0,-0.262l0.001,-0.262l0.004,-0.261l0.005,-0.262l0.006,-0.261l0.008,-0.261l0.01,-0.261l0.012,-0.261l0.014,-0.261l0.015,-0.261l0.017,-0.26l0.018,-0.261l0.02,-0.26l0.022,-0.261l0.024,-0.26l0.025,-0.26l0.027,-0.26l0.029,-0.259l0.031,-0.26l0.032,-0.26l0.034,-0.259l0.035,-0.26l0.037,-0.259l0.039,-0.259l0.04,-0.259l0.043,-0.259l0.043,-0.259l0.046,-0.258l0.047,-0.259l0.049,-0.259l0.05,-0.258l0.052,-0.258l0.054,-0.258l0.055,-0.259l0.057,-0.258l0.059,-0.257l0.06,-0.258l0.062,-0.258l0.063,-0.258l0.066,-0.257l0.066,-0.258l0.068,-0.257l0.07,-0.257l0.072,-0.257l0.073,-0.257l0.074,-0.257l0.077,-0.257l0.077,-0.257l0.08,-0.257l0.081,-0.257l0.082,-0.256l0.084,-0.257l0.086,-0.256l0.087,-0.257l0.088,-0.256l0.09,-0.257l0.024,-0.064l0.07,-0.191l0.095,-0.255l0.097,-0.256l0.099,-0.255l0.1,-0.255l0.101,-0.255l0.103,-0.254l0.105,-0.255l0.106,-0.255l0.107,-0.255l0.109,-0.255l0.11,-0.254l0.112,-0.255l0.113,-0.254l0.115,-0.255l0.116,-0.255l0.118,-0.254l0.119,-0.255l0.12,-0.254l0.122,-0.255l0.123,-0.254l0.125,-0.255l0.126,-0.254l0.128,-0.255l0.128,-0.255l0.131,-0.254l0.131,-0.255l0.134,-0.255l0.134,-0.254l0.136,-0.255l0.137,-0.255l0.139,-0.255l0.14,-0.255l0.141,-0.255l0.143,-0.255l0.144,-0.256l0.145,-0.255l0.147,-0.255l0.148,-0.256l0.149,-0.256l0.151,-0.255l0.152,-0.256l0.153,-0.256l0.155,-0.257l0.156,-0.256l0.157,-0.256l0.158,-0.257l0.16,-0.257l0.162,-0.257l0.162,-0.257l0.164,-0.257l0.165,-0.257l0.166,-0.258l0.168,-0.258l0.169,-0.258l0.17,-0.258l0.171,-0.259l0.175,-0.261l0.12,-0.177l0.124,-0.18l0.124,-0.179l0.126,-0.179l0.127,-0.178l0.127,-0.178l0.129,-0.178l0.129,-0.177l0.131,-0.177l0.131,-0.177l0.041,-0.055l0.093,-0.12l0.136,-0.175l0.136,-0.174l0.138,-0.173l0.138,-0.173l0.139,-0.174l0.14,-0.172l0.144,-0.176l0.28,-0.341l0.287,-0.344l0.291,-0.342l0.293,-0.342l0.296,-0.341l0.299,-0.341l0.301,-0.34l0.304,-0.34l0.307,-0.339l0.309,-0.339l0.311,-0.338l0.313,-0.339l0.316,-0.338l0.318,-0.338l0.319,-0.338l0.322,-0.339l0.323,-0.338l0.325,-0.338l0.326,-0.339l0.328,-0.338l0.331,-0.341l0.66,-0.677l0.667,-0.68l0.671,-0.682l1.349,-1.371l0.677,-0.69l0.23,-0.235l0.456,-0.45l0.691,-0.685l0.343,-0.342l0.344,-0.344l0.344,-0.345l0.344,-0.346l0.343,-0.347l0.342,-0.348l0.342,-0.349l0.341,-0.35l0.34,-0.351l0.339,-0.353l0.338,-0.353l0.336,-0.355l0.006,-0.006l0.336,-0.344l0.34,-0.351l0.339,-0.352l0.337,-0.354l0.336,-0.355l0.334,-0.357l0.332,-0.357l0.331,-0.359l0.329,-0.361l0.327,-0.362l0.324,-0.363l0.323,-0.365l0.32,-0.367l0.187,-0.215l0.138,-0.153l0.16,-0.177l0.162,-0.181l0.162,-0.181l0.161,-0.182l0.16,-0.182l0.16,-0.182l0.159,-0.183l0.159,-0.184l0.158,-0.183l0.157,-0.185l0.156,-0.184l0.156,-0.186l0.155,-0.185l0.155,-0.186l0.154,-0.187l0.153,-0.187l0.152,-0.187l0.152,-0.188l0.15,-0.188l0.15,-0.189l0.15,-0.189l0.148,-0.19l0.148,-0.19l0.147,-0.191l0.146,-0.191l0.145,-0.192l0.145,-0.192l0.144,-0.193l0.142,-0.193l0.143,-0.194l0.141,-0.194l0.14,-0.194l0.139,-0.196l0.139,-0.195l0.138,-0.197l0.136,-0.196l0.136,-0.198l0.135,-0.197l0.134,-0.199l0.133,-0.199l0.132,-0.199l0.131,-0.2l0.131,-0.201l0.129,-0.201l0.128,-0.201l0.128,-0.203l0.126,-0.202l0.125,-0.204l0.124,-0.204l0.124,-0.204l0.12,-0.202l0.002,-0.003l0.126,-0.203l0.126,-0.204l0.124,-0.204l0.123,-0.205l0.123,-0.205l0.121,-0.206l0.12,-0.207l0.119,-0.208l0.118,-0.208l0.117,-0.209l0.116,-0.209l0.115,-0.211l0.114,-0.211l0.112,-0.212l0.112,-0.212l0.111,-0.213l0.109,-0.214l0.108,-0.215l0.107,-0.215l0.106,-0.217l0.105,-0.217l0.104,-0.217l0.102,-0.219l0.101,-0.219l0.101,-0.221l0.099,-0.221l0.097,-0.221l0.097,-0.223l0.095,-0.224l0.094,-0.224l0.093,-0.225l0.092,-0.226l0.09,-0.227l0.09,-0.228l0.088,-0.229l0.086,-0.229l0.086,-0.231l0.084,-0.231l0.083,-0.233l0.081,-0.233l0.08,-0.235l0.079,-0.235l0.078,-0.236l0.076,-0.237l0.075,-0.238l0.074,-0.24l0.072,-0.24l0.071,-0.241l0.069,-0.242l0.068,-0.244l0.067,-0.244l0.063,-0.236l0.002,-0.009l0.069,-0.246l0.067,-0.246l0.065,-0.248l0.064,-0.249l0.063,-0.25l0.061,-0.252l0.06,-0.252l0.059,-0.254l0.075,-0.367l0.109,-0.452l0.088,-0.349l0.086,-0.348l0.085,-0.346l0.083,-0.346l0.082,-0.345l0.08,-0.344l0.079,-0.343l0.077,-0.342l0.076,-0.341l0.075,-0.341l0.073,-0.339l0.071,-0.338l0.07,-0.338l0.069,-0.336l0.067,-0.336l0.066,-0.335l0.064,-0.334l0.063,-0.332l0.062,-0.333l0.06,-0.331l0.058,-0.33l0.058,-0.329l0.056,-0.329l0.054,-0.327l0.053,-0.327l0.052,-0.325l0.05,-0.325l0.049,-0.324l0.047,-0.324l0.046,-0.322l0.045,-0.321l0.043,-0.321l0.025,-0.185l0.019,-0.134l0.045,-0.319l0.043,-0.317l0.043,-0.317l0.04,-0.316l0.04,-0.316l0.038,-0.314l0.036,-0.314l0.036,-0.313l0.034,-0.312l0.032,-0.311l0.031,-0.31l0.03,-0.31l0.029,-0.309l0.027,-0.308l0.026,-0.307l0.025,-0.307l0.023,-0.306l0.023,-0.305l0.02,-0.304l0.02,-0.303l0.018,-0.303l0.017,-0.302l0.015,-0.301l0.015,-0.301l0.013,-0.299l0.011,-0.299l0.011,-0.299l0.009,-0.297l0.008,-0.297l0.007,-0.296l0.005,-0.295l0.004,-0.295l0.003,-0.294l0.002,-0.293l0,-0.292l-0.001,-0.292l-0.002,-0.291l-0.003,-0.29l-0.005,-0.29l-0.005,-0.289l-0.007,-0.288l-0.009,-0.288l-0.009,-0.286l-0.011,-0.287l-0.012,-0.285l-0.002,-0.054l-0.008,-0.231l-0.01,-0.285l-0.012,-0.284l-0.012,-0.283l-0.015,-0.283l-0.015,-0.282l-0.016,-0.281l-0.018,-0.281l-0.019,-0.281l-0.02,-0.279l-0.021,-0.279l-0.023,-0.279l-0.023,-0.277l-0.025,-0.278l-0.026,-0.276l-0.027,-0.276l-0.029,-0.275l-0.029,-0.275l-0.031,-0.275l-0.032,-0.273l-0.033,-0.273l-0.034,-0.273l-0.035,-0.272l-0.037,-0.271l-0.037,-0.271l-0.039,-0.27l-0.04,-0.27l-0.041,-0.269l-0.042,-0.268l-0.044,-0.268l-0.044,-0.268l-0.046,-0.266l-0.047,-0.267l-0.047,-0.266l-0.049,-0.265l-0.051,-0.264l-0.051,-0.265l-0.052,-0.263l-0.054,-0.263l-0.054,-0.263l-0.056,-0.262l-0.057,-0.262l-0.058,-0.261l-0.059,-0.26l-0.06,-0.26l-0.061,-0.26l-0.062,-0.259l-0.064,-0.258l-0.064,-0.258l-0.066,-0.257l-0.067,-0.257l-0.067,-0.257l-0.069,-0.256l-0.07,-0.255l-0.071,-0.255l-0.072,-0.255l-0.073,-0.254l-0.074,-0.253l-0.075,-0.253l-0.077,-0.253l-0.077,-0.252l-0.078,-0.251l-0.08,-0.252l-0.08,-0.25l-0.082,-0.25l-0.083,-0.25l-0.083,-0.249l-0.085,-0.249l-0.086,-0.249l-0.086,-0.248l-0.088,-0.247l-0.089,-0.247l-0.09,-0.246l-0.09,-0.246l-0.092,-0.246l-0.093,-0.245l-0.094,-0.245l-0.095,-0.244l-0.096,-0.244l-0.097,-0.244l-0.098,-0.242l-0.099,-0.243l-0.099,-0.242l-0.101,-0.242l-0.102,-0.241l-0.103,-0.241l-0.104,-0.24l-0.105,-0.24l-0.106,-0.24l-0.106,-0.239l-0.108,-0.238l-0.109,-0.239l-0.11,-0.237l-0.11,-0.238l-0.112,-0.237l-0.113,-0.236l-0.113,-0.237l-0.112,-0.237l-0.113,-0.236l-0.114,-0.237l-0.115,-0.236l-0.116,-0.235l-0.117,-0.236l-0.118,-0.234l-0.119,-0.235l-0.119,-0.234l-0.121,-0.234l-0.121,-0.233l-0.123,-0.233l-0.123,-0.232l-0.125,-0.233l-0.125,-0.231l-0.126,-0.232l-0.127,-0.231l-0.128,-0.23l-0.129,-0.231l-0.13,-0.23l-0.131,-0.229l-0.131,-0.229l-0.133,-0.229l-0.133,-0.229l-0.134,-0.228l-0.136,-0.227l-0.136,-0.228l-0.137,-0.227l-0.137,-0.226l-0.139,-0.227l-0.139,-0.226l-0.141,-0.225l-0.141,-0.225l-0.142,-0.225l-0.143,-0.225l-0.144,-0.224l-0.144,-0.224l-0.146,-0.223l-0.146,-0.223l-0.147,-0.223l-0.148,-0.222l-0.149,-0.222l-0.15,-0.222l-0.15,-0.221l-0.151,-0.221l-0.152,-0.221l-0.153,-0.22l-0.154,-0.22l-0.154,-0.22l-0.156,-0.219l-0.156,-0.219l-0.156,-0.219l-0.158,-0.218l-0.158,-0.218l-0.159,-0.218l-0.16,-0.217l-0.161,-0.217l-0.161,-0.217l-0.163,-0.216l-0.163,-0.216l-0.163,-0.216l-0.165,-0.215l-0.165,-0.215l-0.166,-0.215l-0.167,-0.214l-0.167,-0.214l-0.168,-0.214l-0.169,-0.213l-0.34,-0.426l-0.342,-0.425l-0.346,-0.423l-0.348,-0.422l-0.351,-0.421l-0.353,-0.421l0.422,0.352Z" style="fill:#444;"/><path d="M211.26,0.352l0.029,0.024l0.389,0.33l0.417,0.357l0.415,0.359l0.412,0.361l0.41,0.363l0.205,0.182l0.203,0.183l0.204,0.183l0.202,0.184l0.202,0.184l0.202,0.185l0.201,0.186l0.2,0.186l0.2,0.187l0.199,0.187l0.199,0.188l0.198,0.188l0.197,0.189l0.197,0.189l0.196,0.19l0.196,0.191l0.195,0.191l0.194,0.192l0.194,0.193l0.193,0.193l0.193,0.193l0.192,0.194l0.191,0.195l0.191,0.196l0.19,0.196l0.19,0.197l0.189,0.197l0.188,0.198l0.187,0.198l0.187,0.2l0.187,0.2l0.185,0.2l0.185,0.201l0.184,0.202l0.184,0.203l0.183,0.203l0.182,0.204l0.182,0.204l0.181,0.205l0.18,0.206l0.18,0.206l0.179,0.208l0.178,0.208l0.177,0.208l0.177,0.209l0.176,0.21l0.176,0.211l0.174,0.211l0.174,0.212l0.174,0.213l0.172,0.213l0.172,0.215l0.171,0.215l0.17,0.215l0.17,0.217l0.169,0.217l0.168,0.218l0.167,0.218l0.167,0.219l0.166,0.22l0.165,0.221l0.164,0.222l0.164,0.222l0.163,0.223l0.162,0.224l0.161,0.225l0.16,0.225l0.16,0.226l0.006,0.008l0.151,0.221l0.155,0.229l0.155,0.23l0.154,0.23l0.153,0.232l0.153,0.232l0.151,0.233l0.151,0.233l0.15,0.235l0.149,0.235l0.148,0.236l0.148,0.237l0.146,0.238l0.146,0.239l0.144,0.239l0.144,0.24l0.143,0.241l0.142,0.242l0.142,0.242l0.14,0.244l0.14,0.244l0.138,0.245l0.138,0.246l0.137,0.247l0.136,0.247l0.135,0.248l0.134,0.25l0.133,0.25l0.132,0.251l0.131,0.251l0.131,0.253l0.129,0.254l0.129,0.254l0.127,0.255l0.127,0.256l0.125,0.257l0.125,0.258l0.124,0.258l0.122,0.26l0.122,0.26l0.121,0.262l0.12,0.262l0.119,0.263l0.117,0.264l0.117,0.265l0.116,0.265l0.115,0.267l0.114,0.268l0.112,0.268l0.112,0.269l0.111,0.271l0.11,0.271l0.108,0.272l0.108,0.273l0.107,0.274l0.105,0.274l0.105,0.276l0.103,0.277l0.102,0.277l0.102,0.279l0.1,0.279l0.099,0.28l0.098,0.282l0.097,0.282l0.096,0.283l0.095,0.284l0.094,0.285l0.092,0.286l0.092,0.287l0.09,0.288l0.09,0.289l0.088,0.289l0.087,0.291l0.086,0.292l0.085,0.292l0.083,0.294l0.083,0.294l0.081,0.296l0.081,0.296l0.079,0.298l0.078,0.298l0.076,0.299l0.076,0.3l0.074,0.302l0.074,0.302l0.072,0.303l0.071,0.304l0.069,0.305l0.069,0.307l0.067,0.307l0.066,0.308l0.065,0.309l0.064,0.31l0.062,0.311l0.062,0.312l0.06,0.313l0.047,0.255l0.011,0.059l0.053,0.316l0.053,0.316l0.051,0.317l0.05,0.319l0.049,0.319l0.047,0.32l0.046,0.321l0.045,0.322l0.044,0.324l0.042,0.324l0.041,0.325l0.04,0.326l0.039,0.327l0.037,0.328l0.036,0.329l0.034,0.33l0.034,0.331l0.032,0.332l0.03,0.333l0.03,0.334l0.028,0.335l0.026,0.336l0.026,0.337l0.024,0.337l0.023,0.339l0.021,0.34l0.02,0.341l0.019,0.342l0.017,0.343l0.016,0.344l0.015,0.345l0.013,0.345l0.012,0.347l0.011,0.348l0.009,0.349l0.008,0.35l0.007,0.351l0.005,0.352l0.004,0.353l0.002,0.354l0.001,0.355l0,0.356l-0.002,0.357l-0.003,0.358l-0.005,0.359l-0.002,0.152l-0.006,0.208l-0.012,0.361l-0.013,0.362l-0.014,0.362l-0.016,0.364l-0.017,0.365l-0.019,0.366l-0.02,0.367l-0.022,0.367l-0.023,0.369l-0.024,0.37l-0.026,0.371l-0.028,0.372l-0.028,0.372l-0.031,0.374l-0.031,0.375l-0.033,0.376l-0.035,0.377l-0.036,0.378l-0.038,0.379l-0.039,0.38l-0.04,0.381l-0.042,0.382l-0.044,0.383l-0.045,0.384l-0.046,0.386l-0.048,0.386l-0.05,0.387l-0.051,0.388l-0.052,0.39l-0.054,0.39l-0.056,0.392l-0.057,0.392l-0.038,0.291l-0.02,0.219l-0.04,0.33l-0.043,0.328l-0.045,0.328l-0.046,0.327l-0.049,0.325l-0.051,0.325l-0.053,0.324l-0.054,0.323l-0.003,0.012l-0.059,0.308l-0.063,0.32l-0.065,0.318l-0.067,0.318l-0.069,0.316l-0.071,0.315l-0.072,0.315l-0.075,0.313l-0.076,0.312l-0.078,0.311l-0.08,0.31l-0.082,0.308l-0.083,0.308l-0.086,0.307l-0.087,0.305l-0.088,0.305l-0.091,0.303l-0.092,0.302l-0.094,0.301l-0.095,0.3l-0.097,0.299l-0.099,0.298l-0.101,0.297l-0.102,0.296l-0.103,0.294l-0.105,0.294l-0.107,0.292l-0.108,0.291l-0.11,0.291l-0.111,0.289l-0.113,0.288l-0.114,0.287l-0.116,0.285l-0.117,0.285l-0.118,0.284l-0.12,0.282l-0.122,0.282l-0.122,0.28l-0.124,0.28l-0.126,0.278l-0.127,0.277l-0.128,0.276l-0.129,0.275l-0.13,0.274l-0.132,0.273l-0.133,0.272l-0.135,0.27l-0.135,0.27l-0.137,0.269l-0.138,0.267l-0.139,0.267l-0.14,0.265l-0.003,0.005l-0.144,0.257l-0.147,0.26l-0.148,0.259l-0.15,0.258l-0.151,0.258l-0.151,0.256l-0.153,0.255l-0.153,0.254l-0.155,0.252l-0.155,0.252l-0.157,0.251l-0.157,0.25l-0.159,0.248l-0.159,0.248l-0.16,0.246l-0.161,0.246l-0.161,0.244l-0.163,0.244l-0.163,0.242l-0.165,0.242l-0.165,0.24l-0.165,0.239l-0.167,0.239l-0.167,0.237l-0.168,0.237l-0.169,0.235l-0.169,0.235l-0.17,0.233l-0.171,0.233l-0.171,0.231l-0.172,0.231l-0.173,0.229l-0.173,0.229l-0.173,0.228l-0.175,0.227l-0.175,0.226l-0.175,0.225l-0.176,0.224l-0.177,0.223l-0.177,0.222l-0.177,0.222l-0.178,0.22l-0.179,0.22l-0.179,0.218l-0.179,0.218l-0.18,0.217l-0.18,0.216l-0.18,0.215l-0.181,0.215l-0.181,0.213l-0.185,0.216l-0.151,0.176l-0.216,0.239l-0.374,0.411l-0.376,0.407l-0.376,0.405l-0.377,0.401l-0.378,0.398l-0.379,0.395l-0.379,0.392l-0.38,0.388l-0.379,0.386l-0.38,0.382l-0.38,0.38l-0.38,0.377l-0.373,0.367l-0.007,0.006l-0.385,0.366l-0.385,0.362l-0.385,0.36l-0.384,0.357l-0.383,0.354l-0.382,0.352l-0.381,0.349l-0.381,0.347l-0.379,0.344l-0.379,0.342l-0.376,0.339l-0.377,0.338l-0.745,0.666l-0.489,0.435l-0.254,0.219l-0.743,0.637l-1.461,1.25l-0.715,0.613l-0.704,0.606l-0.695,0.6l-0.34,0.295l-0.339,0.295l-0.335,0.293l-0.332,0.291l-0.329,0.289l-0.325,0.288l-0.321,0.287l-0.317,0.284l-0.313,0.283l-0.31,0.282l-0.305,0.279l-0.301,0.279l-0.297,0.276l-0.292,0.275l-0.288,0.274l-0.284,0.272l-0.278,0.27l-0.274,0.269l-0.269,0.267l-0.264,0.266l-0.263,0.268l-0.124,0.128l-0.126,0.131l-0.125,0.13l-0.124,0.131l-0.122,0.13l-0.121,0.129l-0.12,0.129l-0.081,0.089l-0.038,0.039l-0.119,0.126l-0.118,0.126l-0.116,0.126l-0.115,0.125l-0.114,0.125l-0.112,0.124l-0.111,0.124l-0.109,0.123l-0.108,0.124l-0.109,0.125l-0.179,0.211l-0.179,0.212l-0.179,0.213l-0.177,0.212l-0.175,0.212l-0.174,0.211l-0.173,0.211l-0.171,0.211l-0.17,0.211l-0.168,0.21l-0.168,0.21l-0.165,0.209l-0.164,0.21l-0.163,0.208l-0.162,0.209l-0.16,0.209l-0.159,0.208l-0.157,0.207l-0.156,0.208l-0.154,0.207l-0.153,0.207l-0.152,0.207l-0.151,0.207l-0.148,0.206l-0.148,0.206l-0.146,0.206l-0.145,0.205l-0.143,0.205l-0.142,0.206l-0.141,0.204l-0.139,0.205l-0.138,0.205l-0.136,0.204l-0.135,0.204l-0.134,0.204l-0.132,0.204l-0.131,0.203l-0.129,0.204l-0.128,0.203l-0.127,0.203l-0.125,0.203l-0.124,0.203l-0.123,0.203l-0.121,0.202l-0.12,0.202l-0.118,0.203l-0.117,0.202l-0.116,0.202l-0.114,0.202l-0.113,0.202l-0.112,0.202l-0.11,0.202l-0.109,0.201l-0.107,0.202l-0.106,0.202l-0.105,0.201l-0.103,0.202l-0.077,0.15l-0.026,0.051l-0.103,0.2l-0.102,0.201l-0.1,0.2l-0.099,0.201l-0.097,0.2l-0.097,0.201l-0.094,0.201l-0.094,0.201l-0.092,0.2l-0.091,0.201l-0.089,0.201l-0.089,0.201l-0.086,0.202l-0.086,0.201l-0.084,0.201l-0.083,0.202l-0.081,0.202l-0.081,0.202l-0.078,0.202l-0.078,0.202l-0.076,0.202l-0.075,0.203l-0.073,0.203l-0.072,0.203l-0.071,0.203l-0.07,0.204l-0.068,0.203l-0.067,0.204l-0.065,0.205l-0.065,0.204l-0.062,0.205l-0.062,0.205l-0.06,0.205l-0.059,0.206l-0.058,0.206l-0.056,0.207l-0.055,0.206l-0.053,0.207l-0.052,0.208l-0.051,0.208l-0.05,0.208l-0.048,0.209l-0.047,0.209l-0.046,0.209l-0.044,0.21l-0.043,0.21l-0.041,0.211l-0.04,0.211l-0.039,0.212l-0.037,0.212l-0.037,0.213l-0.034,0.213l-0.034,0.214l-0.032,0.214l-0.03,0.215l-0.03,0.216l-0.028,0.215l-0.026,0.217l-0.025,0.217l-0.024,0.218l-0.022,0.218l-0.021,0.219l-0.02,0.219l-0.018,0.22l-0.017,0.221l-0.016,0.221l-0.014,0.222l-0.012,0.223l-0.012,0.223l-0.009,0.225l-0.009,0.224l0,0.011l-0.009,0.215l-0.008,0.226l-0.006,0.227l-0.005,0.228l-0.004,0.228l-0.002,0.23l-0.001,0.23l0.001,0.231l0.002,0.231l0.004,0.233l0.005,0.233l0.006,0.234l0.008,0.235l0.01,0.236l0.011,0.236l0.012,0.238l0.014,0.238l0.016,0.239l0.017,0.24l0.018,0.241l0.02,0.242l0.022,0.243l0.023,0.243l0.024,0.245l0.026,0.245l0.028,0.246l0.029,0.247l0.031,0.248l0.032,0.249l0.034,0.25l0.035,0.251l0.037,0.252l0.038,0.253l0.041,0.253l0.041,0.255l0.043,0.256l0.045,0.256l0.046,0.258l0.048,0.258l0.05,0.26l0.051,0.26l0.052,0.262l0.055,0.262l0.056,0.264l0.057,0.264l0.059,0.266l0.061,0.266l0.062,0.268l0.064,0.268l0.066,0.27l0.067,0.27l0.069,0.272l0.07,0.272l0.072,0.274l0.074,0.275l0.075,0.275l0.077,0.277l0.079,0.278l0.08,0.279l0.082,0.28l0.084,0.281l0.085,0.282l0.087,0.283l0.089,0.284l0.09,0.286l0.092,0.286l0.094,0.288l0.095,0.288l0.097,0.29l0.099,0.291l0.1,0.292l0.102,0.293l0.104,0.294l0.105,0.295l0.107,0.296l0.109,0.298l0.11,0.298l0.112,0.3l0.114,0.301l0.116,0.302l0.117,0.303l0.119,0.304l0.121,0.305l0.122,0.307l0.124,0.308l0.126,0.309l0.128,0.31l0.129,0.311l0.131,0.312l0.132,0.314l0.135,0.314l0.136,0.316l0.138,0.317l0.139,0.318l0.141,0.32l0.143,0.321l0.11,0.243l0.034,0.079l0.144,0.324l0.146,0.326l0.148,0.327l0.149,0.328l0.151,0.329l0.152,0.331l0.155,0.332l0.156,0.333l0.158,0.334l0.159,0.336l0.162,0.336l0.163,0.339l0.164,0.339l0.167,0.341l0.168,0.342l0.17,0.343l0.172,0.344l0.174,0.346l0.175,0.347l0.177,0.349l0.179,0.35l0.18,0.351l0.182,0.352l0.184,0.354l0.186,0.355l0.188,0.356l0.189,0.358l0.191,0.359l0.111,0.207l0.081,0.154l0.193,0.362l-0.254,-0.322l-0.108,-0.137l-0.144,-0.186l-0.249,-0.322l-0.248,-0.321l-0.245,-0.32l-0.244,-0.319l-0.242,-0.318l-0.24,-0.318l-0.238,-0.316l-0.236,-0.316l-0.234,-0.315l-0.233,-0.314l-0.231,-0.313l-0.229,-0.313l-0.227,-0.311l-0.225,-0.311l-0.223,-0.31l-0.222,-0.309l-0.22,-0.309l-0.218,-0.307l-0.216,-0.307l-0.214,-0.306l-0.213,-0.306l-0.21,-0.304l-0.209,-0.304l-0.207,-0.303l-0.206,-0.303l-0.203,-0.301l-0.202,-0.301l-0.2,-0.3l-0.048,-0.073l-0.148,-0.228l-0.194,-0.3l-0.193,-0.299l-0.19,-0.299l-0.189,-0.298l-0.186,-0.297l-0.186,-0.297l-0.183,-0.296l-0.181,-0.295l-0.18,-0.295l-0.178,-0.294l-0.177,-0.293l-0.174,-0.293l-0.173,-0.292l-0.171,-0.291l-0.169,-0.291l-0.168,-0.291l-0.165,-0.289l-0.164,-0.289l-0.163,-0.289l-0.16,-0.287l-0.159,-0.288l-0.157,-0.287l-0.155,-0.286l-0.154,-0.285l-0.152,-0.285l-0.15,-0.285l-0.148,-0.284l-0.147,-0.284l-0.145,-0.283l-0.143,-0.282l-0.142,-0.282l-0.139,-0.282l-0.138,-0.281l-0.137,-0.28l-0.134,-0.28l-0.133,-0.28l-0.131,-0.279l-0.13,-0.279l-0.128,-0.278l-0.126,-0.278l-0.124,-0.278l-0.123,-0.277l-0.121,-0.276l-0.119,-0.276l-0.117,-0.276l-0.116,-0.276l-0.114,-0.275l-0.112,-0.274l-0.111,-0.275l-0.109,-0.274l-0.107,-0.273l-0.106,-0.274l-0.104,-0.273l-0.102,-0.272l-0.1,-0.273l-0.099,-0.271l-0.097,-0.272l-0.095,-0.272l-0.094,-0.271l-0.092,-0.27l-0.09,-0.271l-0.089,-0.27l-0.086,-0.27l-0.085,-0.27l-0.084,-0.269l-0.081,-0.269l-0.08,-0.269l-0.079,-0.269l-0.076,-0.268l-0.075,-0.268l-0.073,-0.268l-0.072,-0.268l-0.069,-0.268l-0.068,-0.267l-0.067,-0.267l-0.064,-0.267l-0.063,-0.267l-0.061,-0.266l-0.06,-0.267l-0.057,-0.266l-0.056,-0.266l-0.055,-0.266l-0.052,-0.265l-0.051,-0.266l-0.049,-0.265l-0.048,-0.266l-0.045,-0.265l-0.044,-0.264l-0.043,-0.265l-0.04,-0.265l-0.039,-0.264l-0.037,-0.265l-0.036,-0.264l-0.033,-0.264l-0.032,-0.264l-0.03,-0.264l-0.026,-0.264l-0.025,-0.263l-0.022,-0.264l-0.021,-0.263l-0.02,-0.263l-0.017,-0.263l-0.016,-0.263l-0.014,-0.263l-0.012,-0.263l-0.011,-0.262l-0.009,-0.263l-0.007,-0.262l-0.005,-0.262l-0.004,-0.262l-0.002,-0.262l0,-0.262l0.001,-0.262l0.003,-0.261l0.005,-0.262l0.007,-0.261l0.008,-0.261l0.01,-0.261l0.012,-0.261l0.013,-0.261l0.016,-0.261l0.016,-0.26l0.019,-0.261l0.02,-0.26l0.022,-0.261l0.024,-0.26l0.025,-0.26l0.027,-0.26l0.029,-0.259l0.03,-0.26l0.032,-0.26l0.034,-0.259l0.036,-0.26l0.037,-0.259l0.039,-0.259l0.04,-0.259l0.042,-0.259l0.044,-0.259l0.046,-0.258l0.047,-0.259l0.049,-0.259l0.05,-0.258l0.052,-0.258l0.054,-0.258l0.055,-0.259l0.057,-0.258l0.059,-0.257l0.06,-0.258l0.062,-0.258l0.063,-0.258l0.065,-0.257l0.067,-0.258l0.068,-0.257l0.07,-0.257l0.072,-0.257l0.073,-0.257l0.074,-0.257l0.076,-0.257l0.078,-0.257l0.079,-0.257l0.081,-0.257l0.083,-0.256l0.084,-0.257l0.085,-0.256l0.087,-0.257l0.089,-0.256l0.09,-0.257l0.023,-0.064l0.071,-0.191l0.095,-0.255l0.097,-0.256l0.099,-0.255l0.1,-0.255l0.101,-0.255l0.103,-0.254l0.104,-0.255l0.106,-0.255l0.108,-0.255l0.109,-0.255l0.11,-0.254l0.112,-0.255l0.113,-0.254l0.115,-0.255l0.116,-0.255l0.117,-0.254l0.119,-0.255l0.121,-0.254l0.122,-0.255l0.123,-0.254l0.125,-0.255l0.126,-0.254l0.127,-0.255l0.129,-0.255l0.131,-0.254l0.131,-0.255l0.133,-0.255l0.135,-0.254l0.136,-0.255l0.137,-0.255l0.138,-0.255l0.14,-0.255l0.142,-0.255l0.142,-0.255l0.144,-0.256l0.146,-0.255l0.146,-0.255l0.148,-0.256l0.15,-0.256l0.15,-0.255l0.152,-0.256l0.154,-0.256l0.154,-0.257l0.156,-0.256l0.158,-0.256l0.158,-0.257l0.16,-0.257l0.161,-0.257l0.163,-0.257l0.164,-0.257l0.165,-0.257l0.166,-0.258l0.168,-0.258l0.169,-0.258l0.17,-0.258l0.171,-0.259l0.175,-0.261l0.12,-0.177l0.124,-0.18l0.124,-0.179l0.126,-0.179l0.126,-0.178l0.128,-0.178l0.129,-0.178l0.129,-0.177l0.131,-0.177l0.131,-0.177l0.041,-0.055l0.093,-0.12l0.136,-0.175l0.136,-0.174l0.137,-0.173l0.139,-0.173l0.139,-0.174l0.14,-0.172l0.143,-0.176l0.281,-0.341l0.287,-0.344l0.29,-0.342l0.293,-0.342l0.297,-0.341l0.298,-0.341l0.302,-0.34l0.304,-0.34l0.306,-0.339l0.309,-0.339l0.312,-0.338l0.313,-0.339l0.316,-0.338l0.317,-0.338l0.32,-0.338l0.321,-0.339l0.324,-0.338l0.324,-0.338l0.327,-0.339l0.328,-0.338l0.331,-0.341l0.66,-0.677l0.667,-0.68l0.671,-0.682l1.349,-1.371l0.677,-0.69l0.23,-0.235l0.456,-0.45l0.691,-0.685l0.343,-0.342l0.344,-0.344l0.344,-0.345l0.343,-0.346l0.343,-0.347l0.343,-0.348l0.341,-0.349l0.341,-0.35l0.34,-0.351l0.339,-0.353l0.338,-0.353l0.337,-0.355l0.006,-0.006l0.336,-0.344l0.34,-0.351l0.338,-0.352l0.338,-0.354l0.336,-0.355l0.334,-0.357l0.332,-0.357l0.331,-0.359l0.329,-0.361l0.326,-0.362l0.325,-0.363l0.323,-0.365l0.32,-0.367l0.187,-0.215l0.138,-0.153l0.16,-0.177l0.162,-0.181l0.162,-0.181l0.161,-0.182l0.16,-0.182l0.16,-0.182l0.159,-0.183l0.159,-0.184l0.157,-0.183l0.158,-0.185l0.156,-0.184l0.156,-0.186l0.155,-0.185l0.155,-0.186l0.153,-0.187l0.153,-0.187l0.153,-0.187l0.151,-0.188l0.151,-0.188l0.15,-0.189l0.149,-0.189l0.149,-0.19l0.148,-0.19l0.147,-0.191l0.146,-0.191l0.145,-0.192l0.145,-0.192l0.143,-0.193l0.143,-0.193l0.142,-0.194l0.141,-0.194l0.141,-0.194l0.139,-0.196l0.139,-0.195l0.137,-0.197l0.137,-0.196l0.136,-0.198l0.135,-0.197l0.134,-0.199l0.133,-0.199l0.132,-0.199l0.131,-0.2l0.13,-0.201l0.13,-0.201l0.128,-0.201l0.127,-0.203l0.127,-0.202l0.125,-0.204l0.124,-0.204l0.124,-0.204l0.12,-0.202l0.002,-0.003l0.126,-0.203l0.126,-0.204l0.124,-0.204l0.123,-0.205l0.122,-0.205l0.122,-0.206l0.12,-0.207l0.119,-0.208l0.118,-0.208l0.117,-0.209l0.116,-0.209l0.115,-0.211l0.114,-0.211l0.112,-0.212l0.112,-0.212l0.11,-0.213l0.11,-0.214l0.108,-0.215l0.107,-0.215l0.106,-0.217l0.105,-0.217l0.103,-0.217l0.103,-0.219l0.101,-0.219l0.1,-0.221l0.099,-0.221l0.098,-0.221l0.097,-0.223l0.095,-0.224l0.094,-0.224l0.093,-0.225l0.092,-0.226l0.09,-0.227l0.089,-0.228l0.088,-0.229l0.087,-0.229l0.085,-0.231l0.085,-0.231l0.082,-0.233l0.082,-0.233l0.08,-0.235l0.079,-0.235l0.078,-0.236l0.076,-0.237l0.075,-0.238l0.073,-0.24l0.073,-0.24l0.07,-0.241l0.07,-0.242l0.068,-0.244l0.067,-0.244l0.062,-0.236l0.003,-0.009l0.068,-0.246l0.067,-0.246l0.066,-0.248l0.064,-0.249l0.063,-0.25l0.061,-0.252l0.06,-0.252l0.058,-0.254l0.075,-0.367l0.11,-0.452l0.088,-0.349l0.086,-0.348l0.085,-0.346l0.083,-0.346l0.082,-0.345l0.08,-0.344l0.079,-0.343l0.077,-0.342l0.076,-0.341l0.075,-0.341l0.073,-0.339l0.071,-0.338l0.07,-0.338l0.069,-0.336l0.067,-0.336l0.066,-0.335l0.064,-0.334l0.063,-0.332l0.062,-0.333l0.06,-0.331l0.058,-0.33l0.057,-0.329l0.056,-0.329l0.055,-0.327l0.053,-0.327l0.051,-0.325l0.051,-0.325l0.049,-0.324l0.047,-0.324l0.046,-0.322l0.045,-0.321l0.043,-0.321l0.025,-0.185l0.019,-0.134l0.045,-0.319l0.043,-0.317l0.042,-0.317l0.041,-0.316l0.039,-0.316l0.038,-0.314l0.037,-0.314l0.035,-0.313l0.034,-0.312l0.033,-0.311l0.031,-0.31l0.03,-0.31l0.029,-0.309l0.027,-0.308l0.026,-0.307l0.025,-0.307l0.023,-0.306l0.022,-0.305l0.021,-0.304l0.019,-0.303l0.019,-0.303l0.017,-0.302l0.015,-0.301l0.014,-0.301l0.013,-0.299l0.012,-0.299l0.011,-0.299l0.009,-0.297l0.008,-0.297l0.006,-0.296l0.006,-0.295l0.004,-0.295l0.003,-0.294l0.002,-0.293l0,-0.292l-0.001,-0.292l-0.002,-0.291l-0.003,-0.29l-0.005,-0.29l-0.006,-0.289l-0.007,-0.288l-0.008,-0.288l-0.009,-0.286l-0.011,-0.287l-0.012,-0.285l-0.002,-0.054l-0.008,-0.231l-0.01,-0.285l-0.012,-0.284l-0.013,-0.283l-0.014,-0.283l-0.015,-0.282l-0.017,-0.281l-0.017,-0.281l-0.019,-0.281l-0.02,-0.279l-0.021,-0.279l-0.023,-0.279l-0.023,-0.277l-0.025,-0.278l-0.026,-0.276l-0.027,-0.276l-0.029,-0.275l-0.029,-0.275l-0.031,-0.275l-0.032,-0.273l-0.033,-0.273l-0.034,-0.273l-0.035,-0.272l-0.037,-0.271l-0.038,-0.271l-0.038,-0.27l-0.04,-0.27l-0.041,-0.269l-0.043,-0.268l-0.043,-0.268l-0.044,-0.268l-0.046,-0.266l-0.047,-0.267l-0.048,-0.266l-0.049,-0.265l-0.05,-0.264l-0.051,-0.265l-0.052,-0.263l-0.054,-0.263l-0.055,-0.263l-0.055,-0.262l-0.057,-0.262l-0.058,-0.261l-0.059,-0.26l-0.06,-0.26l-0.061,-0.26l-0.063,-0.259l-0.063,-0.258l-0.065,-0.258l-0.065,-0.257l-0.067,-0.257l-0.068,-0.257l-0.068,-0.256l-0.07,-0.255l-0.071,-0.255l-0.072,-0.255l-0.073,-0.254l-0.074,-0.253l-0.076,-0.253l-0.076,-0.253l-0.077,-0.252l-0.079,-0.251l-0.079,-0.252l-0.081,-0.25l-0.081,-0.25l-0.083,-0.25l-0.083,-0.249l-0.085,-0.249l-0.086,-0.249l-0.087,-0.248l-0.087,-0.247l-0.089,-0.247l-0.09,-0.246l-0.091,-0.246l-0.092,-0.246l-0.092,-0.245l-0.094,-0.245l-0.095,-0.244l-0.096,-0.244l-0.097,-0.244l-0.098,-0.242l-0.099,-0.243l-0.1,-0.242l-0.101,-0.242l-0.101,-0.241l-0.103,-0.241l-0.104,-0.24l-0.105,-0.24l-0.106,-0.24l-0.107,-0.239l-0.107,-0.238l-0.109,-0.239l-0.11,-0.237l-0.111,-0.238l-0.111,-0.237l-0.113,-0.236l-0.113,-0.237l-0.112,-0.237l-0.113,-0.236l-0.114,-0.237l-0.115,-0.236l-0.116,-0.235l-0.117,-0.236l-0.118,-0.234l-0.119,-0.235l-0.119,-0.234l-0.121,-0.234l-0.122,-0.233l-0.122,-0.233l-0.124,-0.232l-0.124,-0.233l-0.125,-0.231l-0.126,-0.232l-0.127,-0.231l-0.128,-0.23l-0.129,-0.231l-0.13,-0.23l-0.131,-0.229l-0.132,-0.229l-0.132,-0.229l-0.133,-0.229l-0.135,-0.228l-0.135,-0.227l-0.136,-0.228l-0.137,-0.227l-0.138,-0.226l-0.138,-0.227l-0.14,-0.226l-0.14,-0.225l-0.141,-0.225l-0.142,-0.225l-0.143,-0.225l-0.144,-0.224l-0.145,-0.224l-0.145,-0.223l-0.146,-0.223l-0.148,-0.223l-0.148,-0.222l-0.148,-0.222l-0.15,-0.222l-0.15,-0.221l-0.152,-0.221l-0.152,-0.221l-0.152,-0.22l-0.154,-0.22l-0.155,-0.22l-0.155,-0.219l-0.156,-0.219l-0.157,-0.219l-0.157,-0.218l-0.159,-0.218l-0.159,-0.218l-0.16,-0.217l-0.16,-0.217l-0.162,-0.217l-0.162,-0.216l-0.163,-0.216l-0.164,-0.216l-0.164,-0.215l-0.165,-0.215l-0.166,-0.215l-0.167,-0.214l-0.167,-0.214l-0.168,-0.214l-0.169,-0.213l-0.34,-0.426l-0.343,-0.425l-0.345,-0.423l-0.348,-0.422l-0.351,-0.421l-0.353,-0.421l0.422,0.352Z" style="fill:#444;"/><path d="M292.785,58.127l0.021,0.016l0.277,0.218l0.297,0.235l0.295,0.238l0.295,0.238l0.292,0.241l0.292,0.242l0.289,0.243l0.289,0.246l0.287,0.247l0.285,0.248l0.284,0.25l0.283,0.252l0.281,0.254l0.279,0.256l0.278,0.257l0.277,0.259l0.274,0.261l0.273,0.263l0.272,0.265l0.27,0.267l0.268,0.269l0.266,0.27l0.265,0.273l0.263,0.275l0.262,0.276l0.259,0.279l0.258,0.281l0.256,0.283l0.254,0.285l0.252,0.287l0.251,0.29l0.248,0.292l0.247,0.293l0.244,0.297l0.243,0.298l0.241,0.301l0.239,0.303l0.236,0.305l0.235,0.308l0.01,0.013l0.218,0.299l0.226,0.316l0.223,0.317l0.221,0.32l0.218,0.32l0.11,0.164l0.108,0.163l0.108,0.163l0.107,0.164l0.106,0.165l0.106,0.165l0.105,0.165l0.105,0.167l0.104,0.167l0.103,0.167l0.103,0.169l0.103,0.168l0.101,0.17l0.102,0.17l0.1,0.171l0.1,0.171l0.099,0.172l0.099,0.173l0.098,0.173l0.097,0.174l0.097,0.175l0.096,0.175l0.096,0.176l0.095,0.176l0.094,0.177l0.094,0.178l0.093,0.179l0.092,0.179l0.092,0.18l0.091,0.18l0.09,0.181l0.09,0.182l0.089,0.183l0.089,0.183l0.087,0.184l0.087,0.184l0.087,0.186l0.085,0.185l0.085,0.187l0.085,0.187l0.083,0.188l0.083,0.189l0.082,0.189l0.082,0.19l0.081,0.191l0.08,0.191l0.079,0.192l0.079,0.193l0.078,0.194l0.077,0.194l0.077,0.195l0.075,0.195l0.075,0.196l0.075,0.197l0.073,0.198l0.073,0.198l0.072,0.199l0.071,0.2l0.071,0.201l0.07,0.201l0.069,0.202l0.068,0.203l0.068,0.203l0.066,0.204l0.066,0.205l0.066,0.205l0.064,0.206l0.064,0.207l0.062,0.208l0.063,0.208l0.061,0.21l0.06,0.209l0.06,0.211l0.059,0.211l0.058,0.212l0.057,0.213l0.057,0.213l0.055,0.215l0.055,0.215l0.054,0.215l0.053,0.217l0.053,0.217l0.051,0.217l0.051,0.219l0.05,0.219l0.049,0.22l0.039,0.181l0.008,0.04l0.044,0.222l0.042,0.223l0.042,0.223l0.041,0.224l0.04,0.225l0.039,0.226l0.038,0.226l0.037,0.227l0.037,0.227l0.035,0.229l0.035,0.229l0.034,0.229l0.033,0.231l0.032,0.231l0.031,0.232l0.03,0.232l0.029,0.234l0.029,0.234l0.027,0.235l0.027,0.235l0.026,0.236l0.025,0.237l0.023,0.238l0.023,0.238l0.022,0.239l0.022,0.24l0.02,0.24l0.019,0.242l0.018,0.242l0.018,0.242l0.016,0.244l0.016,0.244l0.015,0.245l0.013,0.245l0.013,0.247l0.012,0.247l0.011,0.247l0.009,0.249l0.009,0.249l0.008,0.25l0.007,0.251l0.007,0.251l0.005,0.253l0.004,0.253l0.003,0.253l0.001,0.101l-0.001,0.153l-0.003,0.255l-0.004,0.256l-0.005,0.256l-0.006,0.257l-0.007,0.257l-0.008,0.259l-0.009,0.259l-0.009,0.26l-0.011,0.26l-0.012,0.261l-0.013,0.262l-0.014,0.263l-0.015,0.263l-0.016,0.264l-0.016,0.265l-0.018,0.265l-0.019,0.267l-0.02,0.267l-0.021,0.267l-0.022,0.269l-0.023,0.269l-0.024,0.27l-0.025,0.27l-0.026,0.272l-0.027,0.272l-0.028,0.272l-0.029,0.274l-0.03,0.274l-0.031,0.275l-0.032,0.276l-0.033,0.276l-0.035,0.277l-0.033,0.269l0.033,-0.187l-0.02,0.222l-0.025,0.239l-0.027,0.238l-0.028,0.238l-0.029,0.237l-0.031,0.236l-0.033,0.235l-0.034,0.235l-0.034,0.229l-0.001,0.006l-0.041,0.232l-0.043,0.232l-0.044,0.231l-0.046,0.23l-0.047,0.23l-0.048,0.229l-0.05,0.228l-0.051,0.227l-0.052,0.227l-0.054,0.225l-0.055,0.225l-0.056,0.225l-0.058,0.223l-0.059,0.223l-0.06,0.222l-0.061,0.221l-0.063,0.22l-0.064,0.22l-0.065,0.219l-0.066,0.218l-0.067,0.217l-0.069,0.216l-0.07,0.216l-0.071,0.215l-0.072,0.214l-0.073,0.213l-0.075,0.213l-0.075,0.212l-0.077,0.21l-0.077,0.211l-0.079,0.209l-0.08,0.208l-0.081,0.208l-0.082,0.207l-0.083,0.206l-0.084,0.205l-0.084,0.205l-0.086,0.204l-0.087,0.202l-0.088,0.203l-0.089,0.201l-0.09,0.2l-0.09,0.2l-0.092,0.199l-0.092,0.198l-0.094,0.198l-0.094,0.196l-0.095,0.196l-0.096,0.195l-0.096,0.194l-0.098,0.193l-0.092,0.18l-0.007,0.013l-0.104,0.189l-0.105,0.188l-0.106,0.187l-0.106,0.186l-0.107,0.186l-0.108,0.185l-0.108,0.184l-0.11,0.183l-0.11,0.182l-0.11,0.182l-0.111,0.18l-0.112,0.18l-0.112,0.179l-0.113,0.179l-0.114,0.177l-0.114,0.177l-0.115,0.176l-0.115,0.175l-0.116,0.174l-0.117,0.174l-0.12,0.178l-0.232,0.338l-0.237,0.34l-0.24,0.338l-0.241,0.334l-0.242,0.332l-0.245,0.328l-0.246,0.326l-0.247,0.322l-0.248,0.32l-0.25,0.317l-0.252,0.315l-0.252,0.312l-0.253,0.309l-0.254,0.306l-0.255,0.304l-0.099,0.116l-0.163,0.18l-0.265,0.29l-0.266,0.288l-0.267,0.285l-0.267,0.282l-0.267,0.28l-0.267,0.278l-0.268,0.275l-0.267,0.273l-0.268,0.271l-0.268,0.268l-0.267,0.266l-0.267,0.263l-0.257,0.252l-0.01,0.009l-0.272,0.254l-0.272,0.251l-0.271,0.249l-0.27,0.247l-0.27,0.245l-0.269,0.243l-0.268,0.241l-0.269,0.24l-0.528,0.47l-0.527,0.464l-0.521,0.457l-0.34,0.297l-0.18,0.149l-0.52,0.431l-1.02,0.843l-0.498,0.412l-0.49,0.406l-0.481,0.399l-0.47,0.394l-0.464,0.391l-0.224,0.19l-0.223,0.19l-0.221,0.19l-0.218,0.187l-0.215,0.187l-0.212,0.185l-0.208,0.184l-0.206,0.182l-0.202,0.181l-0.199,0.179l-0.196,0.178l-0.192,0.177l-0.189,0.175l-0.185,0.174l-0.181,0.173l-0.178,0.171l-0.174,0.169l-0.17,0.168l-0.166,0.167l-0.163,0.164l-0.14,0.145l-0.019,0.018l-0.159,0.158l-0.154,0.157l-0.151,0.155l-0.147,0.153l-0.146,0.157l-0.247,0.275l-0.246,0.278l-0.242,0.277l-0.239,0.277l-0.235,0.275l-0.231,0.274l-0.226,0.274l-0.224,0.273l-0.219,0.271l-0.215,0.271l-0.211,0.27l-0.208,0.27l-0.206,0.272l-0.098,0.13l-0.099,0.134l-0.099,0.134l-0.097,0.133l-0.097,0.133l-0.096,0.133l-0.094,0.133l-0.094,0.133l-0.093,0.133l-0.091,0.132l-0.091,0.133l-0.09,0.132l-0.089,0.132l-0.088,0.132l-0.087,0.132l-0.086,0.132l-0.086,0.131l-0.084,0.132l-0.083,0.131l-0.083,0.132l-0.081,0.131l-0.081,0.131l-0.079,0.131l-0.079,0.131l-0.078,0.131l-0.077,0.131l-0.076,0.13l-0.075,0.131l-0.074,0.131l-0.073,0.13l-0.072,0.131l-0.059,0.107l-0.013,0.023l-0.073,0.13l-0.071,0.129l-0.071,0.13l-0.07,0.129l-0.07,0.13l-0.068,0.129l-0.067,0.13l-0.067,0.13l-0.065,0.13l-0.065,0.129l-0.064,0.13l-0.063,0.13l-0.062,0.13l-0.061,0.13l-0.061,0.13l-0.059,0.131l-0.059,0.13l-0.057,0.131l-0.057,0.13l-0.056,0.131l-0.055,0.131l-0.054,0.131l-0.054,0.131l-0.052,0.132l-0.052,0.131l-0.051,0.132l-0.049,0.132l-0.05,0.132l-0.048,0.132l-0.047,0.133l-0.046,0.133l-0.046,0.133l-0.045,0.133l-0.044,0.133l-0.043,0.134l-0.042,0.134l-0.041,0.135l-0.041,0.134l-0.039,0.135l-0.039,0.135l-0.038,0.136l-0.037,0.136l-0.036,0.136l-0.035,0.136l-0.034,0.137l-0.034,0.137l-0.033,0.138l-0.031,0.138l-0.031,0.138l-0.03,0.139l-0.029,0.139l-0.029,0.14l-0.027,0.139l-0.027,0.141l-0.025,0.141l-0.025,0.141l-0.024,0.142l-0.023,0.142l-0.022,0.142l-0.021,0.143l-0.021,0.144l-0.019,0.144l-0.018,0.145l-0.018,0.145l-0.017,0.145l-0.016,0.147l-0.014,0.146l-0.014,0.147l-0.013,0.148l-0.012,0.148l-0.012,0.149l-0.001,0.013l-0.011,0.137l-0.012,0.15l-0.01,0.151l-0.01,0.151l-0.009,0.152l-0.008,0.153l-0.007,0.153l-0.006,0.154l-0.005,0.154l-0.004,0.155l-0.003,0.156l-0.003,0.157l-0.001,0.157l0,0.158l0.001,0.158l0.002,0.159l0.002,0.16l0.004,0.161l0.005,0.161l0.006,0.162l0.006,0.163l0.008,0.163l0.009,0.164l0.01,0.165l0.01,0.166l0.012,0.166l0.013,0.167l0.014,0.168l0.015,0.169l0.016,0.169l0.017,0.17l0.018,0.171l0.019,0.171l0.02,0.173l0.021,0.173l0.023,0.173l0.023,0.175l0.024,0.175l0.026,0.177l0.026,0.177l0.028,0.177l0.028,0.179l0.03,0.179l0.031,0.18l0.032,0.181l0.033,0.182l0.034,0.182l0.035,0.183l0.037,0.184l0.037,0.185l0.039,0.186l0.039,0.186l0.041,0.188l0.042,0.188l0.043,0.189l0.044,0.189l0.045,0.191l0.046,0.191l0.048,0.193l0.048,0.193l0.05,0.193l0.051,0.195l0.052,0.196l0.053,0.196l0.054,0.197l0.056,0.198l0.056,0.199l0.058,0.2l0.059,0.2l0.059,0.202l0.062,0.202l0.062,0.203l0.063,0.204l0.065,0.205l0.065,0.205l0.067,0.207l0.068,0.207l0.069,0.208l0.071,0.21l0.071,0.21l0.073,0.21l0.074,0.212l0.075,0.213l0.076,0.213l0.077,0.214l0.078,0.216l0.08,0.216l0.081,0.217l0.082,0.217l0.083,0.219l0.084,0.22l0.086,0.22l0.086,0.222l0.088,0.222l0.089,0.223l0.159,0.393l0.022,0.057l0.181,0.455l0.186,0.459l0.191,0.463l0.196,0.467l0.2,0.47l0.205,0.474l0.209,0.478l0.215,0.482l0.219,0.486l0.224,0.489l0.228,0.494l0.233,0.497l0.239,0.501l0.242,0.506l0.071,0.145l0.175,0.365l-0.262,-0.308l-0.105,-0.124l-0.359,-0.432l-0.354,-0.429l-0.349,-0.427l-0.344,-0.426l-0.338,-0.423l-0.334,-0.421l-0.328,-0.419l-0.324,-0.417l-0.318,-0.416l-0.313,-0.413l-0.309,-0.412l-0.303,-0.41l-0.298,-0.409l-0.294,-0.406l-0.036,-0.051l-0.248,-0.356l-0.14,-0.204l-0.139,-0.203l-0.137,-0.202l-0.136,-0.202l-0.135,-0.202l-0.134,-0.201l-0.133,-0.201l-0.131,-0.2l-0.13,-0.2l-0.129,-0.2l-0.128,-0.199l-0.126,-0.199l-0.126,-0.199l-0.124,-0.198l-0.123,-0.198l-0.121,-0.198l-0.121,-0.197l-0.119,-0.197l-0.118,-0.197l-0.117,-0.197l-0.116,-0.196l-0.114,-0.195l-0.114,-0.196l-0.112,-0.195l-0.11,-0.195l-0.11,-0.195l-0.109,-0.194l-0.107,-0.194l-0.106,-0.194l-0.105,-0.194l-0.104,-0.193l-0.102,-0.194l-0.102,-0.192l-0.1,-0.193l-0.099,-0.193l-0.097,-0.192l-0.097,-0.192l-0.095,-0.192l-0.095,-0.191l-0.093,-0.192l-0.092,-0.191l-0.09,-0.191l-0.09,-0.191l-0.088,-0.191l-0.087,-0.19l-0.086,-0.191l-0.085,-0.19l-0.083,-0.19l-0.083,-0.19l-0.081,-0.19l-0.08,-0.189l-0.079,-0.19l-0.077,-0.189l-0.077,-0.19l-0.075,-0.189l-0.074,-0.189l-0.073,-0.189l-0.071,-0.189l-0.071,-0.189l-0.069,-0.188l-0.068,-0.189l-0.067,-0.188l-0.066,-0.189l-0.065,-0.188l-0.063,-0.188l-0.062,-0.189l-0.061,-0.188l-0.06,-0.188l-0.058,-0.188l-0.058,-0.188l-0.056,-0.188l-0.055,-0.188l-0.053,-0.188l-0.053,-0.187l-0.051,-0.188l-0.05,-0.188l-0.049,-0.188l-0.048,-0.187l-0.046,-0.188l-0.046,-0.188l-0.044,-0.187l-0.043,-0.188l-0.041,-0.188l-0.041,-0.187l-0.039,-0.188l-0.038,-0.188l-0.037,-0.187l-0.035,-0.188l-0.034,-0.188l-0.034,-0.187l-0.031,-0.188l-0.031,-0.188l-0.029,-0.187l-0.029,-0.188l-0.024,-0.172l-0.026,-0.203l-0.022,-0.188l-0.021,-0.188l-0.019,-0.188l-0.019,-0.187l-0.017,-0.188l-0.016,-0.188l-0.015,-0.187l-0.013,-0.188l-0.012,-0.188l-0.011,-0.187l-0.01,-0.188l-0.009,-0.188l-0.007,-0.187l-0.006,-0.188l-0.005,-0.187l-0.004,-0.188l-0.002,-0.187l-0.001,-0.188l0,-0.187l0.001,-0.188l0.003,-0.187l0.004,-0.187l0.005,-0.188l0.006,-0.187l0.007,-0.187l0.009,-0.188l0.01,-0.187l0.011,-0.187l0.013,-0.187l0.013,-0.187l0.015,-0.187l0.016,-0.188l0.017,-0.187l0.019,-0.187l0.019,-0.187l0.021,-0.186l0.022,-0.187l0.023,-0.187l0.025,-0.187l0.026,-0.187l0.026,-0.186l0.028,-0.187l0.03,-0.187l0.03,-0.186l0.032,-0.187l0.032,-0.186l0.034,-0.187l0.035,-0.186l0.037,-0.186l0.037,-0.187l0.039,-0.186l0.039,-0.186l0.041,-0.186l0.042,-0.186l0.044,-0.186l0.044,-0.186l0.045,-0.186l0.047,-0.186l0.048,-0.186l0.048,-0.185l0.05,-0.186l0.052,-0.186l0.052,-0.185l0.053,-0.186l0.054,-0.185l0.056,-0.186l0.056,-0.185l0.058,-0.185l0.059,-0.186l0.06,-0.185l0.01,-0.033l0.052,-0.151l0.065,-0.185l0.065,-0.184l0.066,-0.184l0.068,-0.184l0.068,-0.184l0.07,-0.183l0.07,-0.184l0.072,-0.184l0.073,-0.184l0.073,-0.183l0.075,-0.184l0.075,-0.183l0.077,-0.184l0.078,-0.183l0.078,-0.184l0.08,-0.183l0.081,-0.184l0.081,-0.183l0.083,-0.183l0.084,-0.184l0.084,-0.183l0.086,-0.183l0.086,-0.183l0.088,-0.184l0.088,-0.183l0.09,-0.183l0.09,-0.183l0.091,-0.184l0.093,-0.183l0.093,-0.183l0.097,-0.188l0.188,-0.362l0.195,-0.367l0.198,-0.367l0.202,-0.367l0.206,-0.368l0.209,-0.367l0.213,-0.368l0.216,-0.369l0.22,-0.368l0.223,-0.369l0.227,-0.37l0.23,-0.37l0.238,-0.375l0.169,-0.261l0.177,-0.263l0.179,-0.263l0.181,-0.261l0.184,-0.259l0.021,-0.03l0.169,-0.225l0.192,-0.253l0.195,-0.252l0.197,-0.251l0.199,-0.25l0.2,-0.249l0.203,-0.247l0.204,-0.247l0.206,-0.247l0.207,-0.245l0.209,-0.245l0.211,-0.244l0.212,-0.243l0.213,-0.243l0.215,-0.243l0.216,-0.242l0.217,-0.241l0.218,-0.242l0.219,-0.241l0.22,-0.24l0.224,-0.243l0.441,-0.478l0.448,-0.481l0.45,-0.48l0.452,-0.48l0.453,-0.481l0.909,-0.964l0.455,-0.483l0.155,-0.165l0.306,-0.311l0.465,-0.474l0.463,-0.475l0.463,-0.48l0.228,-0.237l0.228,-0.239l0.229,-0.24l0.227,-0.241l0.227,-0.241l0.225,-0.241l0.225,-0.242l0.224,-0.243l0.008,-0.009l0.22,-0.228l0.227,-0.238l0.227,-0.239l0.225,-0.239l0.223,-0.24l0.223,-0.24l0.221,-0.242l0.219,-0.242l0.218,-0.242l0.217,-0.243l0.215,-0.244l0.213,-0.245l0.211,-0.245l0.129,-0.151l0.085,-0.093l0.217,-0.238l0.215,-0.24l0.214,-0.241l0.212,-0.241l0.21,-0.243l0.208,-0.243l0.206,-0.244l0.204,-0.246l0.201,-0.246l0.2,-0.247l0.197,-0.248l0.196,-0.25l0.193,-0.25l0.19,-0.251l0.192,-0.258l0.09,-0.121l0.092,-0.127l0.093,-0.127l0.091,-0.128l0.091,-0.128l0.09,-0.128l0.089,-0.128l0.089,-0.129l0.089,-0.128l0.087,-0.13l0.087,-0.129l0.086,-0.13l0.086,-0.13l0.085,-0.13l0.084,-0.131l0.084,-0.131l0.083,-0.131l0.082,-0.132l0.082,-0.132l0.081,-0.132l0.08,-0.133l0.006,-0.009l0.079,-0.121l0.083,-0.131l0.084,-0.13l0.082,-0.132l0.082,-0.131l0.082,-0.132l0.08,-0.133l0.08,-0.133l0.079,-0.133l0.079,-0.134l0.077,-0.134l0.078,-0.134l0.076,-0.135l0.076,-0.136l0.074,-0.136l0.075,-0.136l0.073,-0.137l0.073,-0.137l0.072,-0.138l0.071,-0.138l0.071,-0.139l0.07,-0.139l0.069,-0.14l0.068,-0.14l0.068,-0.141l0.066,-0.141l0.067,-0.142l0.065,-0.142l0.064,-0.143l0.064,-0.144l0.063,-0.144l0.062,-0.144l0.062,-0.145l0.06,-0.146l0.06,-0.146l0.059,-0.147l0.058,-0.147l0.058,-0.149l0.056,-0.148l0.056,-0.15l0.055,-0.149l0.054,-0.151l0.053,-0.151l0.053,-0.152l0.051,-0.153l0.051,-0.153l0.05,-0.154l0.049,-0.155l0.048,-0.155l0.047,-0.156l0.046,-0.157l0.046,-0.157l0.001,-0.004l0.048,-0.154l0.048,-0.158l0.048,-0.159l0.046,-0.159l0.046,-0.161l0.044,-0.161l0.044,-0.163l0.043,-0.163l0.06,-0.275l0.087,-0.337l0.065,-0.233l0.064,-0.233l0.063,-0.233l0.062,-0.231l0.061,-0.231l0.06,-0.23l0.059,-0.23l0.058,-0.229l0.057,-0.229l0.056,-0.228l0.055,-0.227l0.054,-0.226l0.053,-0.226l0.052,-0.226l0.051,-0.225l0.05,-0.224l0.049,-0.223l0.048,-0.223l0.047,-0.222l0.047,-0.222l0.045,-0.221l0.044,-0.221l0.043,-0.22l0.043,-0.219l0.041,-0.219l0.04,-0.218l0.04,-0.218l0.038,-0.217l0.038,-0.216l0.037,-0.216l0.035,-0.215l0.035,-0.215l0.021,-0.129l0.015,-0.085l0.037,-0.213l0.036,-0.213l0.035,-0.212l0.034,-0.211l0.034,-0.212l0.032,-0.21l0.032,-0.21l0.03,-0.21l0.03,-0.209l0.029,-0.208l0.028,-0.208l0.027,-0.208l0.026,-0.207l0.025,-0.206l0.024,-0.206l0.023,-0.206l0.023,-0.205l0.021,-0.204l0.021,-0.204l0.02,-0.204l0.019,-0.203l0.018,-0.202l0.017,-0.202l0.016,-0.202l0.016,-0.201l0.014,-0.201l0.014,-0.2l0.013,-0.2l0.011,-0.199l0.012,-0.199l0.01,-0.198l0.009,-0.198l0.009,-0.197l0.007,-0.197l0.007,-0.196l0.006,-0.196l0.005,-0.196l0.004,-0.195l0.004,-0.195l0.002,-0.194l0.002,-0.194l0.001,-0.193l0,-0.193l-0.001,-0.193l-0.002,-0.192l0,-0.035l0.001,-0.157l0.001,-0.192l0,-0.191l-0.001,-0.191l-0.002,-0.191l-0.003,-0.19l-0.004,-0.19l-0.004,-0.189l-0.005,-0.189l-0.006,-0.189l-0.007,-0.189l-0.007,-0.188l-0.009,-0.187l-0.009,-0.188l-0.01,-0.186l-0.011,-0.187l-0.012,-0.186l-0.012,-0.186l-0.014,-0.186l-0.014,-0.185l-0.015,-0.185l-0.015,-0.184l-0.017,-0.184l-0.017,-0.184l-0.018,-0.184l-0.019,-0.183l-0.02,-0.183l-0.02,-0.182l-0.022,-0.183l-0.022,-0.181l-0.023,-0.182l-0.023,-0.181l-0.025,-0.181l-0.025,-0.181l-0.026,-0.18l-0.027,-0.18l-0.027,-0.18l-0.028,-0.179l-0.029,-0.179l-0.03,-0.179l-0.031,-0.178l-0.031,-0.179l-0.032,-0.177l-0.033,-0.178l-0.034,-0.177l-0.034,-0.177l-0.036,-0.177l-0.036,-0.176l-0.036,-0.177l-0.038,-0.175l-0.038,-0.176l-0.039,-0.175l-0.04,-0.175l-0.04,-0.175l-0.041,-0.174l-0.042,-0.175l-0.043,-0.173l-0.044,-0.174l-0.044,-0.173l-0.045,-0.174l-0.045,-0.172l-0.047,-0.173l-0.047,-0.172l-0.048,-0.172l-0.049,-0.172l-0.049,-0.171l-0.05,-0.172l-0.051,-0.171l-0.051,-0.17l-0.053,-0.171l-0.053,-0.17l-0.053,-0.17l-0.055,-0.17l-0.055,-0.169l-0.056,-0.169l-0.057,-0.169l-0.057,-0.169l-0.058,-0.168l-0.059,-0.169l-0.059,-0.168l-0.06,-0.167l-0.061,-0.168l-0.062,-0.167l-0.062,-0.167l-0.063,-0.167l-0.064,-0.166l-0.063,-0.165l-0.132,-0.333l-0.133,-0.331l-0.137,-0.33l-0.139,-0.329l-0.136,-0.314l-0.005,-0.014l-0.14,-0.33l-0.143,-0.329l-0.145,-0.329l-0.148,-0.327l-0.15,-0.327l-0.153,-0.326l-0.156,-0.325l-0.159,-0.324l-0.161,-0.323l-0.164,-0.323l-0.166,-0.321l-0.169,-0.321l-0.171,-0.32l-0.174,-0.32l-0.177,-0.318l-0.179,-0.318l-0.181,-0.317l-0.184,-0.316l-0.187,-0.315l-0.188,-0.315l-0.191,-0.314l-0.194,-0.313l-0.196,-0.312l-0.198,-0.311l-0.2,-0.311l-0.203,-0.31l-0.205,-0.309l-0.207,-0.309l-0.21,-0.307l-0.212,-0.307l-0.213,-0.306l-0.216,-0.306l-0.218,-0.304l-0.221,-0.304l-0.222,-0.303l-0.224,-0.303l-0.227,-0.302l-0.228,-0.301l-0.214,-0.279l-0.016,-0.021l-0.232,-0.3l0.301,0.232Z" style="fill:#444;"/></g></svg>