<?xml version="1.0" encoding="UTF-8" standalone="no"?><!DOCTYPE svg PUBLIC "-//W3C//DTD SVG 1.1//EN" "http://www.w3.org/Graphics/SVG/1.1/DTD/svg11.dtd"><svg width="100%" height="100%" viewBox="0 0 400 400" version="1.1" xmlns="http://www.w3.org/2000/svg" xmlns:xlink="http://www.w3.org/1999/xlink" xml:space="preserve" xmlns:serif="http://www.serif.com/" style="fill-rule:evenodd;clip-rule:evenodd;stroke-linejoin:round;stroke-miterlimit:1.41421;"><g id="Search"><path d="M400,377.963l-18.727,18.726l-152.282,-152.282l18.727,-18.726c50.761,50.76 101.521,101.521 152.282,152.282Z" style="fill:#393939;fill-rule:nonzero;"/><path d="M142.351,3.311c78.565,0 142.35,63.785 142.35,142.35c0,78.566 -63.785,142.351 -142.35,142.351c-78.566,0 -142.351,-63.785 -142.351,-142.351c0,-78.565 63.785,-142.35 142.351,-142.35Zm0,24.828c64.862,0 117.522,52.66 117.522,117.522c0,64.862 -52.66,117.522 -117.522,117.522c-64.863,0 -117.522,-52.66 -117.522,-117.522c0,-64.862 52.659,-117.522 117.522,-117.522Z" style="fill:#393939;"/></g></svg>